<?xml version="1.0" encoding="utf-8"?>
<!-- Generator: Adobe Illustrator 27.5.0, SVG Export Plug-In . SVG Version: 6.00 Build 0)  -->
<svg version="1.1" xmlns="http://www.w3.org/2000/svg" xmlns:xlink="http://www.w3.org/1999/xlink" x="0px" y="0px"
	 viewBox="0 0 3710 3710" style="enable-background:new 0 0 3710 3710;" xml:space="preserve">
<g id="Background">
	<g>
		<g>
			<rect style="fill:#FFFFFF;" width="3710" height="3710"/>
		</g>
	</g>
</g>
<g id="Illustration">
	<g>
		<linearGradient id="SVGID_1_" gradientUnits="userSpaceOnUse" x1="3589.584" y1="4060.001" x2="1114.0978" y2="985.6023">
			<stop  offset="0" style="stop-color:#DAE3FE"/>
			<stop  offset="1" style="stop-color:#E9EFFD"/>
		</linearGradient>
		<path style="fill:url(#SVGID_1_);" d="M2908.562,2847.569c-56.861,59.861-110.662,98.464-153.17,128.964
			c-499.666,358.516-1090.902,254.01-1216.557,228.489c-185.552-37.687-544.221-110.534-803.532-415.479
			c-392.316-461.355-331.226-1188.208-26.92-1668.013c55.662-87.765,349.688-574.878,947.293-652.996
			c361.664-47.276,783.248,48.074,1088.548,303.854C3385.076,1309.295,3339.454,2393.94,2908.562,2847.569z"/>
		<g>
			<path style="fill:#BDD0FB;" d="M2835.69,660.783l142.676,344.298c37.799,91.215,31.731,194.722-16.469,280.895l-289.305,517.235
				c-32.804,58.648-46.468,126.078-39.085,192.869l32.186,291.147c12.064,109.131-32.222,216.904-117.533,286.02l0,0
				c-135.396,109.695-333.441,91.998-447.244-39.963l-180.441-209.233c-84.592-98.089-102.291-237.27-44.942-353.41l189.138-383.031
				c24.165-48.937,35.515-103.207,32.987-157.726l-26.054-561.958c-6.006-129.551,66.174-250.096,183.21-305.972l143.995-68.745
				C2565.552,413.604,2764.955,490.088,2835.69,660.783z"/>
			<g>
				<path style="fill:#7D97F4;" d="M2280.774,2700.626c-25.31-451.178,42.994-908.765,104.754-1213.185
					c36.959-182.183,74.272-324.22,99.067-411.294c16.503-57.962,28.768-96.219,36.152-118.108
					c16.018-47.49,19.252-49.546,24.15-52.658c7.683-4.884,17.864-2.609,22.739,5.065c3.935,6.19,3.224,14.007-1.225,19.362
					c-23.131,44.024-300.074,925.277-252.743,1768.97c0.51,9.085-6.441,16.861-15.523,17.371c-0.926,0.052-1.836,0.026-2.729-0.071
					C2287.552,2715.221,2281.233,2708.784,2280.774,2700.626z M2562.57,933.186c0.012-0.008,0.026-0.017,0.038-0.024
					C2562.596,933.169,2562.583,933.178,2562.57,933.186z M2562.633,933.146c0.002-0.003,0.007-0.004,0.007-0.004
					C2562.638,933.145,2562.635,933.144,2562.633,933.146z"/>
			</g>
		</g>
		<g>
			<path style="fill:#91B3FA;" d="M2511.792,2115.542c61.286-41.969,95.319-113.292,89.644-187.353
				c-6.058-79.067,6.338-167.421,39.579-255.112c87.235-230.129,284.985-368.53,441.688-309.129
				c156.703,59.401,213.018,294.112,125.781,524.241c-16.934,44.672-38.034,85.886-62.19,122.866
				c-36.629,56.077-44.133,126.306-19.01,188.397c23.863,58.978,26.42,126.754,2.09,190.938
				c-33.221,87.637-108.411,147.057-194.026,164.068c-50.714,10.076-95.753,38.47-126.238,80.232
				c-86.5,118.5-217.234,176.855-328.673,134.613c-142.823-54.14-199.856-253.01-127.386-444.186
				C2387.599,2233.975,2445.345,2161.045,2511.792,2115.542z"/>
			<path style="fill:#7D97F4;" d="M2342.737,3030.789c3.695,1.022,7.813-0.111,10.444-3.235
				c130.056-154.344,261.842-442.258,349.494-656.607c94.809-231.85,159.876-429.994,160.521-431.968
				c1.739-5.313-1.158-11.029-6.469-12.766c-5.293-1.737-11.03,1.157-12.767,6.47c-2.574,7.865-260.263,789.895-506.256,1081.829
				c-3.602,4.274-3.056,10.659,1.218,14.26C2340.07,3029.742,2341.375,3030.412,2342.737,3030.789z"/>
		</g>
		<g>
			<g>
				
					<linearGradient id="SVGID_00000049212834646330332480000003406919400006388367_" gradientUnits="userSpaceOnUse" x1="1378.1771" y1="227.5869" x2="1391.6168" y2="3117.0095">
					<stop  offset="0" style="stop-color:#09005D"/>
					<stop  offset="1" style="stop-color:#1A0F91"/>
				</linearGradient>
				<path style="fill:url(#SVGID_00000049212834646330332480000003406919400006388367_);" d="M560.169,585.666
					c-10.126,408.449-42.965,1817.346-27.288,2316.616c1.661,52.893,44.062,95.347,96.953,97.078
					c261.601,8.561,1014.15,30.259,1442.039,12.307c89.123-3.739,159.995-75.929,161.845-165.111
					c8.892-428.72,28.509-1634.548-18.119-2186.938c-5.587-66.185-57.534-118.89-123.624-125.502
					c-284.895-28.5-1041.568-98.166-1411.238-74.176C614.067,464.266,561.825,518.876,560.169,585.666z"/>
				<path style="fill:#91B3FA;" d="M666.465,712.58c-14.289,334.517-59.355,1447.377-45.051,1858.89
					c2.091,60.148,49.497,108.783,109.579,112.299c247.375,14.476,881.869,46.396,1244.708,17.341
					c65.335-5.231,116.604-58.069,120.131-123.519c18.387-341.278,71.181-1377.507,57.47-1784.408
					c-2.188-64.912-52.47-117.924-117.159-123.733c-267.62-24.027-954.96-81.2-1263.289-64.377
					C714.974,608.231,668.938,654.667,666.465,712.58z"/>
				<path style="opacity:0.5;fill:#3F67F9;" d="M1206.686,531.31L1206.686,531.31c0,12.533,9.767,22.869,22.283,23.525
					c61.789,3.236,235.848,12.392,313.636,16.905c15.338,0.89,27.376-12.897,24.467-27.982l-0.497-2.574
					c-1.985-10.294-10.522-18.041-20.961-18.998c-52.582-4.818-211.244-18.178-316.367-14.425
					C1216.618,508.211,1206.686,518.674,1206.686,531.31z"/>
			</g>
			<path style="opacity:0.73;fill:#FFFFFF;" d="M2157.591,1354.166h-304.411c-16.612,0-30.097-13.43-30.165-30.042
				c-1.118-272.244-2.104-638.873-0.276-673.713c-0.097,1.839-56.179-3.733-56.179-3.733c-0.892,17.771,0.35-7.225-0.059,29.861
				c-0.232,21.046-0.394,51.276-0.481,89.853c-0.146,64.565-0.092,153.704,0.165,264.941c0.434,189.225,1.312,379.539,1.321,381.439
				l0.098,21.022c0.094,20.168,16.469,36.468,36.637,36.468h63.466c11.018,0,19.949,8.932,19.949,19.949v346.228
				c0,22.851-18.524,41.375-41.375,41.375h-158.315c-17.786,0-33.665-11.15-39.703-27.88l-122.016-338.057
				c-7.047-19.523-25.575-32.534-46.331-32.534h-147.585c-12.46,0-21.694-11.573-18.928-23.722l188.592-828.339l-77.82-5.064
				l-179.662,809.909c-6.119,27.585-30.581,47.216-58.837,47.216h-54.659c-20.104,0-36.387-16.299-36.333-36.404
				c0.197-73.475,0.456-180.47,0.622-287.088c0.173-111.216,0.21-200.26,0.111-264.659c-0.198-128.43,4.211-277.042,2.198-285.405
				c0,0-36.772-0.497-36.808-1.189c1.345,25.94,4.623,543.824,4.126,840.731c-0.031,18.795-15.273,34.013-34.068,34.013h-51.389
				c-21.99,0-40.577-16.288-43.46-38.089c-32.174-243.298-109.324-825.918-111.461-839.233c-35.366,0.825-67.681,2.703-84.655,9.875
				c0,0,85.409,642.765,124.804,940.862l0,0c3.229,24.427,24.055,42.682,48.695,42.682h229.43c20.341,0,34.132,20.698,26.3,39.47
				l-161.178,386.301c-9.327,22.355-31.176,36.913-55.399,36.913H622.016l-1.885,116.098h350.075
				c28.988,0,55.136-17.423,66.298-44.176l208.097-498.749c9.061-21.715,30.285-35.857,53.814-35.857h156.873
				c18.76,0,35.507,11.76,41.876,29.406l80.736,223.688c5.142,14.247-5.413,29.279-20.56,29.279h-224.041
				c-11.047,0-20.001,8.955-20.001,20.001v807.463h29.73v-727.675c0-21.006,17.029-38.036,38.035-38.036h192.937
				c22.057,0,41.747,13.827,49.235,34.573l240.086,665.181l44.72-69.641l-217.255-601.928c-4.95-13.715,5.211-28.186,19.792-28.186
				h205.669c21.346,0,38.651-17.305,38.651-38.651V1504.24c0-18.765,15.212-33.977,33.977-33.977h168.714V1354.166z"/>
			<g>
				
					<linearGradient id="SVGID_00000111168398664545545500000005508895694610942132_" gradientUnits="userSpaceOnUse" x1="780.0225" y1="1297.532" x2="1939.6479" y2="1297.532">
					<stop  offset="0" style="stop-color:#4F52FF"/>
					<stop  offset="1" style="stop-color:#4042E2"/>
				</linearGradient>
				<path style="fill:url(#SVGID_00000111168398664545545500000005508895694610942132_);" d="M1922.767,1925.514h-286.2
					c-7,0-13.276-4.322-15.772-10.864l-142.93-374.729H904.821c-8.487,0-15.654-6.303-16.742-14.721L780.163,688.591
					c-1.191-9.246,5.337-17.708,14.584-18.9c9.24-1.195,17.706,5.337,18.9,14.581l106.018,821.889h569.827
					c7,0,13.276,4.322,15.771,10.864l142.93,374.728h257.693v-475.648c0-9.322,7.559-16.88,16.881-16.88
					c9.322,0,16.881,7.558,16.881,16.88v492.528C1939.648,1917.956,1932.089,1925.514,1922.767,1925.514z"/>
			</g>
			
				<linearGradient id="SVGID_00000078766891096441848330000008873883108006385025_" gradientUnits="userSpaceOnUse" x1="1834.9637" y1="1383.8979" x2="2007.6956" y2="1383.8979">
				<stop  offset="0" style="stop-color:#4F52FF"/>
				<stop  offset="1" style="stop-color:#4042E2"/>
			</linearGradient>
			<circle style="fill:url(#SVGID_00000078766891096441848330000008873883108006385025_);" cx="1921.33" cy="1383.898" r="86.366"/>
		</g>
		
			<linearGradient id="SVGID_00000098943165561862858830000009006371296924519049_" gradientUnits="userSpaceOnUse" x1="3224.3223" y1="1563.6974" x2="4467.4448" y2="434.8091">
			<stop  offset="0" style="stop-color:#4F52FF"/>
			<stop  offset="1" style="stop-color:#4042E2"/>
		</linearGradient>
		
			<rect x="2744.201" y="752.732" style="fill:url(#SVGID_00000098943165561862858830000009006371296924519049_);" width="92.958" height="2409.517"/>
		<g>
			<path style="fill:#FFFFFF;" d="M3176.227,1215.385c0,103.841-84.18,188.021-188.021,188.021h-420.228
				c-103.841,0-188.021-84.18-188.021-188.021V795.156c0-103.841,84.18-188.021,188.021-188.021h420.228
				c103.841,0,188.021,84.18,188.021,188.021V1215.385z"/>
			
				<linearGradient id="SVGID_00000043448958658634628760000008814212051579921834_" gradientUnits="userSpaceOnUse" x1="2731.4751" y1="1677.6306" x2="2778.8293" y2="967.3242">
				<stop  offset="0" style="stop-color:#4F52FF"/>
				<stop  offset="1" style="stop-color:#4042E2"/>
			</linearGradient>
			<path style="fill:url(#SVGID_00000043448958658634628760000008814212051579921834_);" d="M3132.55,795.039
				c0-81.51-66.077-147.587-147.587-147.587H2567.86c-81.51,0-147.587,66.077-147.587,147.587v417.103
				c0,81.51,66.077,147.587,147.587,147.587h417.103c81.51,0,147.587-66.077,147.587-147.587V795.039z"/>
			<g>
				<path style="fill:#FFFFFF;" d="M2613.819,784.363c31.541-5.369,75.831-9.397,138.24-9.397c63.077,0,108.04,12.08,138.237,36.237
					c28.855,22.818,48.317,60.397,48.317,104.686c0,44.289-14.763,81.868-41.606,107.369
					c-34.895,32.882-86.566,47.646-146.963,47.646c-13.421,0-25.499-0.671-34.895-2.015v161.726h-101.33V784.363z M2715.148,989.705
					c8.725,2.015,19.461,2.685,34.224,2.685c54.357,0,87.908-27.514,87.908-73.818c0-41.603-28.855-66.434-79.855-66.434
					c-20.803,0-34.896,2.013-42.277,4.027V989.705z"/>
			</g>
		</g>
		<g>
			<g>
				<g>
					
						<linearGradient id="SVGID_00000183222573673554122800000012372038248190206648_" gradientUnits="userSpaceOnUse" x1="1580.3577" y1="3315.4944" x2="1640.833" y2="1904.3832">
						<stop  offset="0" style="stop-color:#09005D"/>
						<stop  offset="1" style="stop-color:#1A0F91"/>
					</linearGradient>
					<path style="fill:url(#SVGID_00000183222573673554122800000012372038248190206648_);" d="M1704.637,2881.671
						c0-50.076-40.594-90.67-90.67-90.67h-40.406c-50.076,0-90.67,40.594-90.67,90.67v241.994c0,50.076,40.594,90.67,90.67,90.67
						h40.406c50.076,0,90.67-40.594,90.67-90.67V2881.671z"/>
					
						<linearGradient id="SVGID_00000065037441580838140160000015835221836450936460_" gradientUnits="userSpaceOnUse" x1="2827.9092" y1="3368.9609" x2="2888.3845" y2="1957.8497">
						<stop  offset="0" style="stop-color:#09005D"/>
						<stop  offset="1" style="stop-color:#1A0F91"/>
					</linearGradient>
					<path style="fill:url(#SVGID_00000065037441580838140160000015835221836450936460_);" d="M2954.48,2881.671
						c0-50.076-40.594-90.67-90.67-90.67h-40.406c-50.076,0-90.67,40.594-90.67,90.67v241.994c0,50.076,40.594,90.67,90.67,90.67
						h40.406c50.076,0,90.67-40.594,90.67-90.67V2881.671z"/>
				</g>
				<g>
					
						<linearGradient id="SVGID_00000165212248577190306490000010054335590723542678_" gradientUnits="userSpaceOnUse" x1="2110.2131" y1="480.827" x2="1948.9429" y2="1045.2726">
						<stop  offset="0" style="stop-color:#FF928E"/>
						<stop  offset="1" style="stop-color:#FE7062"/>
					</linearGradient>
					<path style="fill:url(#SVGID_00000165212248577190306490000010054335590723542678_);" d="M1603.299,2427.807
						c-2.718-0.602-6.175-3.011-6.175-5.794v-18.633c0-17.955-8.59-34.378-24.624-42.46c-20.683-10.426-44.245-10.789-65.231-0.986
						l-36.574,18.036c-18.399,8.595-28.121,27.066-28.121,47.373v14.208c0,26.151,17.666,48.281,43.578,51.809l157.946,21.617
						l18.459-72.312L1603.299,2427.807z"/>
					
						<linearGradient id="SVGID_00000049216115895167781920000017700490204929125025_" gradientUnits="userSpaceOnUse" x1="760.9109" y1="-8204.2949" x2="599.6408" y2="-7639.8491" gradientTransform="matrix(-1 0 0 1 620.375 0)">
						<stop  offset="0" style="stop-color:#FF928E"/>
						<stop  offset="1" style="stop-color:#FE7062"/>
					</linearGradient>
					<path style="fill:url(#SVGID_00000049216115895167781920000017700490204929125025_);" d="M2842.194,2427.807
						c2.718-0.602,4.773-3.011,4.773-5.794v-18.633c0-17.955,9.992-34.378,26.025-42.46c20.684-10.426,44.946-10.789,65.932-0.986
						l40.563,18.036c18.399,8.595,32.11,27.066,32.11,47.373v14.208c0,26.151-21.304,48.281-47.216,51.809l-159.766,21.617
						l-20.07-72.312L2842.194,2427.807z"/>
				</g>
				
					<linearGradient id="SVGID_00000138569348842354840960000016432439563459389846_" gradientUnits="userSpaceOnUse" x1="2230.0107" y1="2151.5483" x2="2216.5708" y2="3038.5347">
					<stop  offset="0" style="stop-color:#FF928E"/>
					<stop  offset="1" style="stop-color:#FE7062"/>
				</linearGradient>
				<path style="fill:url(#SVGID_00000138569348842354840960000016432439563459389846_);" d="M2958.07,2587.685
					c-22.987-77.588-141.752-149.466-141.752-149.466s-99.609-305.738-206.881-305.738c-86.136,0-292.975,0-371.149,0
					c0,0-11.468,0-30.649,0c-78.256,0-285.465,0-371.619,0c-107.272,0-206.881,305.738-206.881,305.738
					s-118.765,71.814-141.752,149.402c-16.805,56.723,19.629,275.556,40.44,388.135c7.337,39.691,44.79,70.589,88.527,70.589
					h591.285h30.649h590.815c43.737,0,81.19-30.866,88.527-70.557C2938.441,2863.209,2974.876,2644.408,2958.07,2587.685z"/>
				
					<linearGradient id="SVGID_00000094597123653711074300000016030836424946862477_" gradientUnits="userSpaceOnUse" x1="2158.8452" y1="3620.2075" x2="2266.3572" y2="2464.4438">
					<stop  offset="0" style="stop-color:#E1473D"/>
					<stop  offset="1" style="stop-color:#E9605A"/>
				</linearGradient>
				<path style="fill:url(#SVGID_00000094597123653711074300000016030836424946862477_);" d="M2943.15,2912.51
					c-6.685-7.647-16.879-13.996-27.668-13.996H1529.976c-10.722,0-20.861,6.295-27.55,13.862
					c-6.689,7.567-9.201,18.416-6.824,27.857l22.673,92.429c3.647,14.493,17.916,27.122,34.375,27.122h1339.026
					c16.317,0,30.501-11.984,34.289-26.315l23.806-91.966C2952.274,2932.027,2949.835,2920.157,2943.15,2912.51z"/>
				<g>
					<g>
						<path style="fill:#BDD0FB;" d="M1848.528,2773.814c0,0-34.48-103.44-77.9-112.38c-43.419-8.939-227.314-47.25-231.145-15.324
							c-3.831,31.926-40.865,141.752,68.961,151.968C1718.27,2808.294,1866.22,2816.699,1848.528,2773.814z"/>
					</g>
					<g>
						<path style="fill:#BDD0FB;" d="M2596.93,2773.814c0,0,34.48-103.44,77.899-112.38c43.42-8.939,227.314-47.25,231.145-15.324
							c3.832,31.926,40.866,141.752-68.96,151.968C2727.188,2808.294,2579.238,2816.699,2596.93,2773.814z"/>
					</g>
				</g>
				
					<linearGradient id="SVGID_00000018200903280990246550000012824234025166017444_" gradientUnits="userSpaceOnUse" x1="1743.1099" y1="3354.3708" x2="2764.4849" y2="1983.5769">
					<stop  offset="0" style="stop-color:#E1473D"/>
					<stop  offset="1" style="stop-color:#E9605A"/>
				</linearGradient>
				<path style="fill:url(#SVGID_00000018200903280990246550000012824234025166017444_);" d="M2572.165,2683.897
					c-3.567-5.497-9.674-10.489-16.227-10.489h-666.42c-6.787,0-13.077,5.232-16.576,11.047c-3.498,5.816-3.693,13.877-0.514,19.873
					l37.495,72.488c13.913,26.236,41.182,44.424,70.879,44.424h489.661c31.669,0,60.375-19.994,73.273-48.917l29.868-68.497
					C2576.274,2697.841,2575.732,2689.393,2572.165,2683.897z"/>
				<g>
					<path style="fill:#7D97F4;" d="M2753.634,2463.871c-4.33,6.59-11.685,11.31-19.615,11.31H1711.413
						c-8.007,0-15.478-4.835-19.768-11.616c-4.291-6.781-4.827-15.654-1.379-22.933c23.217-48.923,66.776-139.676,91.181-190.361
						c1.111-2.299,2.337-4.613,3.716-6.72c11.8-18.734,32.526-30.434,55.015-30.434h773.313c22.719,0,43.522,11.838,55.283,30.725
						c1.647,2.682,3.141,5.498,4.406,8.409l82.292,189.061C2758.653,2448.552,2757.963,2457.243,2753.634,2463.871z"/>
					<path style="fill:#91B3FA;" d="M2668.774,2243.841c-54.172,10.689-213.356,37.334-453.452,37.334
						c-242.089,0-384.147-27.191-430.159-37.727c11.8-18.734,32.526-30.333,55.015-30.333h773.313
						C2636.21,2213.116,2657.013,2224.954,2668.774,2243.841z"/>
				</g>
				<g>
					<g>
						<path style="fill:#FFFFFF;" d="M1832.049,2633.1c-0.946,0-1.893-0.348-2.634-1.048l-132.546-125.43
							c-1.536-1.456-1.603-3.88-0.15-5.417c1.459-1.536,3.884-1.6,5.417-0.15l132.547,125.43c1.536,1.456,1.603,3.88,0.15,5.418
							C1834.079,2632.697,1833.064,2633.1,1832.049,2633.1z"/>
					</g>
					<g>
						<path style="fill:#FFFFFF;" d="M2603.649,2633.1c-1.016,0-2.03-0.403-2.783-1.198c-1.454-1.538-1.386-3.962,0.149-5.418
							l132.546-125.43c1.538-1.45,3.964-1.386,5.417,0.15c1.454,1.538,1.386,3.962-0.15,5.417l-132.546,125.43
							C2605.542,2632.751,2604.596,2633.1,2603.649,2633.1z"/>
					</g>
				</g>
			</g>
		</g>
		<g>
			<g>
				<g>
					<path style="fill:#FFFFFF;" d="M2551.606,1978.127c18.839-15.768,90.321-135.64,204.695-0.032
						c12.375,6.454,44.374-11.633,40.3-24.304c-133.846-195.223-300.542-12.002-284.192,8.087
						C2528.758,1981.968,2529.696,1996.467,2551.606,1978.127z"/>
				</g>
				<g>
					<path style="fill:#FFFFFF;" d="M2877.338,1896.834c24.964-2.93,48.433-19.961,41.415-41.795
						c-6.914-21.511-245.15-299.824-510.503,13.911c-3.256,3.851-4.84,8.841-4.401,13.863c0.438,5.023,2.862,9.664,6.737,12.89
						c12.082,10.062,22.373,16.821,35.726,15.176C2689.125,1635.549,2852.374,1899.763,2877.338,1896.834z"/>
				</g>
				<g>
					<path style="fill:#FFFFFF;" d="M3001.356,1813.687c17.731,3.551,53.983-9.778,44.618-38.912
						c-419.348-456.263-792.8,21.957-779.1,41.245c13.698,19.288,41.476,20.012,52.655,13.503
						C2653.41,1401.248,2983.624,1810.135,3001.356,1813.687z"/>
				</g>
			</g>
			<path style="fill:#FFFFFF;" d="M2707.736,2047.825c0,30.68-24.871,55.551-55.55,55.551c-30.679,0-55.549-24.871-55.549-55.551
				s24.87-55.549,55.549-55.549C2682.865,1992.276,2707.736,2017.145,2707.736,2047.825z"/>
		</g>
		<g>
			
				<linearGradient id="SVGID_00000082356029858471966920000007017635972655598008_" gradientUnits="userSpaceOnUse" x1="4639.2622" y1="3112.7905" x2="4082.9146" y2="3717.9412" gradientTransform="matrix(1 0 0 1 -3363.6506 0)">
				<stop  offset="0" style="stop-color:#09005D"/>
				<stop  offset="1" style="stop-color:#1A0F91"/>
			</linearGradient>
			<path style="fill:url(#SVGID_00000082356029858471966920000007017635972655598008_);" d="M1290.213,3241.733l-163.835-75.298
				l-28.93-4.678c0,0-6.214,35.175-9.259,69.994L1290.213,3241.733z"/>
			
				<linearGradient id="SVGID_00000023988987396252214510000001934031686361017791_" gradientUnits="userSpaceOnUse" x1="4456.0083" y1="3161.6118" x2="4509.2998" y2="3161.6118" gradientTransform="matrix(1 0 0 1 -3363.6506 0)">
				<stop  offset="0" style="stop-color:#FEBBBA"/>
				<stop  offset="1" style="stop-color:#FF928E"/>
			</linearGradient>
			<path style="fill:url(#SVGID_00000023988987396252214510000001934031686361017791_);" d="M1092.358,3141.09l4.992,42.073
				c0,0,28.699,13.361,48.299-1.684l-11.885-46.887L1092.358,3141.09z"/>
			
				<linearGradient id="SVGID_00000063628106020542902700000006606782708252401841_" gradientUnits="userSpaceOnUse" x1="3012.0562" y1="6202.3955" x2="2622.321" y2="7156.5742" gradientTransform="matrix(1 0 0 1 -3363.6506 0)">
				<stop  offset="0" style="stop-color:#4F52FF"/>
				<stop  offset="1" style="stop-color:#4042E2"/>
			</linearGradient>
			<path style="fill:url(#SVGID_00000063628106020542902700000006606782708252401841_);" d="M1096.11,2350.092
				c-2.157,10.987-11.574,548.292,45.86,789.076c0.937,3.929-1.055,7.979-4.794,9.507c-8.809,3.599-26.078,8.811-46.775,9.506
				c-6.409,0.216-12.156-3.95-13.964-10.103c-16.417-55.866-95.085-335.769-105.348-603.151c-11.467-298.774,0-10.173,0-10.173
				l6.726-184.684L1096.11,2350.092z"/>
			
				<linearGradient id="SVGID_00000016761723942986349490000013150168380978499207_" gradientUnits="userSpaceOnUse" x1="4499.4619" y1="3003.8228" x2="3946.1658" y2="3605.6545" gradientTransform="matrix(1 0 0 1 -3363.6506 0)">
				<stop  offset="0" style="stop-color:#09005D"/>
				<stop  offset="1" style="stop-color:#1A0F91"/>
			</linearGradient>
			<path style="fill:url(#SVGID_00000016761723942986349490000013150168380978499207_);" d="M974.606,3249.611
				c-2.091-17.223-8.606-45.48-28.734-67.505l-36.888-1.999c0,0-9.89,17.758-19.466,64.944L974.606,3249.611z"/>
			
				<linearGradient id="SVGID_00000036238426974333954200000004765712463063067524_" gradientUnits="userSpaceOnUse" x1="4263.9463" y1="3158.8792" x2="4309.959" y2="3158.8792" gradientTransform="matrix(1 0 0 1 -3363.6506 0)">
				<stop  offset="0" style="stop-color:#FEBBBA"/>
				<stop  offset="1" style="stop-color:#FF928E"/>
			</linearGradient>
			<path style="fill:url(#SVGID_00000036238426974333954200000004765712463063067524_);" d="M900.296,3125.991l11.665,63.626
				c0,0,11.533,8.579,34.348,2.36l-5.567-68.458L900.296,3125.991z"/>
			
				<linearGradient id="SVGID_00000099661120951016172670000003315348505363854495_" gradientUnits="userSpaceOnUse" x1="2888.3923" y1="6151.8843" x2="2498.6553" y2="7106.0674" gradientTransform="matrix(1 0 0 1 -3363.6506 0)">
				<stop  offset="0" style="stop-color:#4F52FF"/>
				<stop  offset="1" style="stop-color:#4042E2"/>
			</linearGradient>
			<path style="fill:url(#SVGID_00000099661120951016172670000003315348505363854495_);" d="M868.785,2366.58
				c-46.973,283.486,10.189,700.66,29.468,782.31c1.18,4.999,5.214,8.829,10.281,9.669c8.605,1.426,22.773,2.59,36.74-1.466
				c4.812-1.397,8.193-5.738,8.389-10.746c2.586-66.012-2.069-471.264,41.7-631.421c2.218-8.116,7.174-15.195,14.033-20.071
				l84.951-60.393l6.513-97.62L868.785,2366.58z"/>
			<g>
				
					<linearGradient id="SVGID_00000181799456543711079360000005399241424451738499_" gradientUnits="userSpaceOnUse" x1="1897.0439" y1="-2793.0122" x2="2293.4983" y2="-2033.7002" gradientTransform="matrix(1 0 0 1 -3363.6506 0)">
					<stop  offset="0" style="stop-color:#FF928E"/>
					<stop  offset="1" style="stop-color:#FE7062"/>
				</linearGradient>
				<path style="fill:url(#SVGID_00000181799456543711079360000005399241424451738499_);" d="M1168.099,1829.428
					c-140.77-2.325-296.092,36.962-296.092,36.962c-41.961,244.838-7.337,527.242-7.337,527.242
					c108.98,28.579,231.916-17.474,231.916-17.474c18.113-102.337,102.625-390.345,102.625-390.345
					c68.779-8.536,125.439-28.38,172.099-54.616c-35.591-41.255-52.37-93.75-59.657-124.781
					C1261.88,1821.884,1211.518,1830.146,1168.099,1829.428z"/>
				
					<linearGradient id="SVGID_00000152222298896623047230000001162845212712734375_" gradientUnits="userSpaceOnUse" x1="69.7064" y1="1454.0986" x2="163.7319" y2="1722.7438" gradientTransform="matrix(-1 0 0 1 1611.6316 0)">
					<stop  offset="0" style="stop-color:#FEBBBA"/>
					<stop  offset="1" style="stop-color:#FF928E"/>
				</linearGradient>
				<path style="fill:url(#SVGID_00000152222298896623047230000001162845212712734375_);" d="M1583.907,1622.083
					c-13.828-16.702-31.33-8.801-31.33-8.801c-20.715,87.504-129.334,158.455-240.925,193.135
					c7.287,31.031,24.066,83.526,59.657,124.781C1556.504,1827.07,1583.907,1622.083,1583.907,1622.083z"/>
			</g>
			<g>
				
					<linearGradient id="SVGID_00000139292518540130125820000011641979101634360453_" gradientUnits="userSpaceOnUse" x1="-10.6584" y1="1482.2262" x2="83.3668" y2="1750.8702" gradientTransform="matrix(-1 0 0 1 1611.6316 0)">
					<stop  offset="0" style="stop-color:#FEBBBA"/>
					<stop  offset="1" style="stop-color:#FF928E"/>
				</linearGradient>
				<path style="fill:url(#SVGID_00000139292518540130125820000011641979101634360453_);" d="M1580.551,1626.329
					c1.447,4.6-15.309,11.604-25.174-7.209c-0.346-9.016-5.829-47.644-0.441-54.99c28.695-39.121,84.328-88.161,84.328-88.161
					c9.402,9.277,1.656,18.391,1.656,18.391l-26.988,28.115c5.645,10.201,12.531,18.812,15.758,31.151
					c2.444,9.344,0.949,19.33-3.771,27.835c-4.737,8.535-11.201,19.629-17.311,28.312
					C1597.043,1626.206,1580.551,1626.329,1580.551,1626.329z"/>
				
					<linearGradient id="SVGID_00000037662450021115955630000004919395031850248855_" gradientUnits="userSpaceOnUse" x1="61.5736" y1="1653.8628" x2="-9.2516" y2="1510.9911" gradientTransform="matrix(-1 0 0 1 1611.6316 0)">
					<stop  offset="0" style="stop-color:#FEBBBA"/>
					<stop  offset="1" style="stop-color:#FF928E"/>
				</linearGradient>
				<path style="fill:url(#SVGID_00000037662450021115955630000004919395031850248855_);" d="M1602.128,1540.718l-24.594,20.849
					l-7.722,20.758l21.928,24.326c0,0,7.372-41.188,12.853-50.102C1610.073,1547.635,1607.231,1543.324,1602.128,1540.718z"/>
			</g>
			
				<linearGradient id="SVGID_00000079475262478613721580000008364677667960211342_" gradientUnits="userSpaceOnUse" x1="1721.3287" y1="-2701.2671" x2="2117.7842" y2="-1941.9531" gradientTransform="matrix(1 0 0 1 -3363.6506 0)">
				<stop  offset="0" style="stop-color:#FF928E"/>
				<stop  offset="1" style="stop-color:#FE7062"/>
			</linearGradient>
			<path style="fill:url(#SVGID_00000079475262478613721580000008364677667960211342_);" d="M926,2002.696l-53.994-136.307
				c0,0-131.487,89.34-153.11,202.613c24.844,1.829,70.053,8.292,114.304,30.635C842.924,2046.152,926,2002.696,926,2002.696z"/>
			
				<linearGradient id="SVGID_00000111899226063358822270000004059615857478069664_" gradientUnits="userSpaceOnUse" x1="4079.5493" y1="2156.9495" x2="4424.0918" y2="2156.9495" gradientTransform="matrix(1 0 0 1 -3363.6506 0)">
				<stop  offset="0" style="stop-color:#FEBBBA"/>
				<stop  offset="1" style="stop-color:#FF928E"/>
			</linearGradient>
			<path style="fill:url(#SVGID_00000111899226063358822270000004059615857478069664_);" d="M1040.904,2130.957
				c0,0-147.626,83.431-197.438,12.191c-10.342-14.793-12.814-29.494-10.266-43.51c-44.251-22.343-89.46-28.806-114.304-30.635
				c-6.52,34.148-3.073,70.467,16.993,107.173c87.253,159.609,324.552-8.821,324.552-8.821L1040.904,2130.957z"/>
			<g>
				
					<linearGradient id="SVGID_00000013175177464690330050000016428984643748793767_" gradientUnits="userSpaceOnUse" x1="4528.3286" y1="1911.9904" x2="4717.7803" y2="2701.374" gradientTransform="matrix(1 0 0 1 -3363.6506 0)">
					<stop  offset="0" style="stop-color:#09005D"/>
					<stop  offset="1" style="stop-color:#1A0F91"/>
				</linearGradient>
				<path style="fill:url(#SVGID_00000013175177464690330050000016428984643748793767_);" d="M1023.167,2236.506l80.569-281.365
					c0.914-3.194,3.638-5.523,6.939-5.908c14.597-1.702,56.895-6.484,105.733-10.615c58.827-4.976,127.142-9.008,167.965-5.577
					c5.804,0.487,9.312,6.626,6.731,11.847c-23.215,46.966-118.705,238.012-166.523,300.596c-1.585,2.074-4.035,3.286-6.643,3.261
					l-186.934-1.739C1025.565,2246.954,1021.669,2241.735,1023.167,2236.506z"/>
				
					<linearGradient id="SVGID_00000002360175053925651670000014525717649343361980_" gradientUnits="userSpaceOnUse" x1="4398.5112" y1="2120.8245" x2="4505.8496" y2="2120.8245" gradientTransform="matrix(1 0 0 1 -3363.6506 0)">
					<stop  offset="0" style="stop-color:#FEBBBA"/>
					<stop  offset="1" style="stop-color:#FF928E"/>
				</linearGradient>
				<path style="fill:url(#SVGID_00000002360175053925651670000014525717649343361980_);" d="M1042.633,2168.528
					c0,0-11.223-46.15-6.697-62.522c4.528-16.374,13.299-37.425,42.537-32.747c29.238,4.677,63.726,16.994,63.726,16.994
					s-1.742,21.327-23.963,14.447l13.78,10.662c0,0-1.97,17.075-20.739,7.953l12.816,14.14c0,0-8.06,14.025-21.87,5.029
					C1088.414,2133.488,1081.794,2174.085,1042.633,2168.528z"/>
			</g>
			
				<linearGradient id="SVGID_00000060724223074153990650000015368392290223992450_" gradientUnits="userSpaceOnUse" x1="4344.1104" y1="1788.6125" x2="4480.3311" y2="1788.6125" gradientTransform="matrix(1 0 0 1 -3363.6506 0)">
				<stop  offset="0" style="stop-color:#FEBBBA"/>
				<stop  offset="1" style="stop-color:#FF928E"/>
			</linearGradient>
			<path style="fill:url(#SVGID_00000060724223074153990650000015368392290223992450_);" d="M1025.511,1715.145l-44.791,129.532
				c-0.742,2.145,0.14,4.522,2.127,5.62c12.209,6.751,56.198,26.263,109.208-7.346c5.522-3.501,9.281-9.211,10.12-15.697
				l14.505-112.109H1025.511z"/>
			
				<linearGradient id="SVGID_00000126314473922724945720000011098377351604326303_" gradientUnits="userSpaceOnUse" x1="-2126.042" y1="1460.3114" x2="-2176.946" y2="1292.4177" gradientTransform="matrix(0.746 -0.6659 0.6659 0.746 1762.6848 -803.1727)">
				<stop  offset="0" style="stop-color:#FEBBBA"/>
				<stop  offset="1" style="stop-color:#FF928E"/>
			</linearGradient>
			<path style="fill:url(#SVGID_00000126314473922724945720000011098377351604326303_);" d="M1122.969,1595.195
				c0,0,49.185,92.585,42.88,129.985c-6.305,37.399-67.262,34.714-120.491,4.339l-37.195-99.971L1122.969,1595.195z"/>
			
				<linearGradient id="SVGID_00000080902265990133060220000013184860936987924898_" gradientUnits="userSpaceOnUse" x1="1030.1019" y1="1430.3652" x2="1081.9989" y2="1726.37">
				<stop  offset="0" style="stop-color:#09005D"/>
				<stop  offset="1" style="stop-color:#1A0F91"/>
			</linearGradient>
			<path style="fill:url(#SVGID_00000080902265990133060220000013184860936987924898_);" d="M1091.674,1517.467
				c-53.731,30.838-105.538,51.84-117.257,77.728c-11.718,25.887-12.335,40.073-3.701,47.474s0.009,63.42,47.49,82.337
				c0.007,0.002,0.014,0.004,0.021,0.008c6.548,2.607,13.998,1.428,19.42-3.073c5.423-4.503,7.938-11.602,6.587-18.52l-4.356-22.309
				c0,0,1.843,2.509,8.691,2.077c6.849-0.431-4.68-16.426-7.581-23.042c-2.902-6.616-13.1-23.083,3.337-23.467
				c16.437-0.385,86.774-10.254,103.824-37.391C1165.201,1572.153,1145.405,1486.63,1091.674,1517.467z"/>
			
				<linearGradient id="SVGID_00000017476014762031729870000006612376635480747944_" gradientUnits="userSpaceOnUse" x1="-2178.0781" y1="1459.5293" x2="-2223.8774" y2="1308.4725" gradientTransform="matrix(0.746 -0.6659 0.6659 0.746 1762.6848 -803.1727)">
				<stop  offset="0" style="stop-color:#FEBBBA"/>
				<stop  offset="1" style="stop-color:#FF928E"/>
			</linearGradient>
			<path style="fill:url(#SVGID_00000017476014762031729870000006612376635480747944_);" d="M1053.314,1686.176
				c0,0-35.019-24.027-37.579-3.793c-2.558,20.234,31.536,29.308,48.423,21.765L1053.314,1686.176z"/>
			<g style="opacity:0.8;">
				
					<linearGradient id="SVGID_00000023967310872669404500000017247639821788581821_" gradientUnits="userSpaceOnUse" x1="1121.41" y1="1561.4647" x2="1140.5767" y2="1561.4647">
					<stop  offset="0" style="stop-color:#DAE3FE"/>
					<stop  offset="1" style="stop-color:#E9EFFD"/>
				</linearGradient>
				<path style="fill:url(#SVGID_00000023967310872669404500000017247639821788581821_);" d="M1129.019,1598.263
					c-0.426,0-0.855-0.147-1.204-0.448c-0.774-0.665-0.862-1.831-0.2-2.607c0.998-1.166,24.088-29.004-5.816-67.559
					c-0.626-0.809-0.479-1.971,0.328-2.597c0.812-0.622,1.978-0.475,2.597,0.328c31.809,41.015,5.963,71.932,5.698,72.24
					C1130.055,1598.043,1129.54,1598.263,1129.019,1598.263z"/>
			</g>
		</g>
	</g>
</g>
</svg>
