<?xml version="1.0" encoding="utf-8"?>
<!-- Generator: Adobe Illustrator 27.5.0, SVG Export Plug-In . SVG Version: 6.00 Build 0)  -->
<svg version="1.1" xmlns="http://www.w3.org/2000/svg" xmlns:xlink="http://www.w3.org/1999/xlink" x="0px" y="0px"
	 viewBox="0 0 3710 3710" style="enable-background:new 0 0 3710 3710;" xml:space="preserve">
<g id="Background">
	<g>
		<g>
			<rect style="fill:#FFFFFF;" width="3710" height="3710"/>
		</g>
	</g>
</g>
<g id="Illustration">
	<g>
		<linearGradient id="SVGID_1_" gradientUnits="userSpaceOnUse" x1="3627.0144" y1="4042.282" x2="1133.4966" y2="945.4891">
			<stop  offset="0" style="stop-color:#DAE3FE"/>
			<stop  offset="1" style="stop-color:#E9EFFD"/>
		</linearGradient>
		<path style="fill:url(#SVGID_1_);" d="M2923.217,2835.313c-57.576,60.613-112.053,99.702-155.095,130.585
			c-505.947,363.023-1104.617,257.204-1231.852,231.361c-187.885-38.16-551.063-111.924-813.633-420.702
			c-397.248-467.156-335.391-1203.146-27.258-1688.983c56.362-88.868,337.318-535.68,942.436-614.78
			c366.211-47.87,863.332-10.059,1172.469,248.937C3459.191,1265.388,3359.526,2375.981,2923.217,2835.313z"/>
		<path style="fill:#BDD0FB;" d="M3129.874,2427.27c-2.799-2.874-5.623-5.719-8.47-8.539
			c-55.944-55.387-120.972-100.528-183.242-148.442c-27.699-21.313-57.662-43.51-92.417-45.543
			c-37.201-2.177-71.296,19.173-102.531,39.708c-40.085-40.617-85.931-83.894-142.661-85.863
			c-41.357-1.436-79.78,19.757-115.81,40.324c-62.958,35.938-125.916,71.876-188.874,107.813
			c-37.999,21.69-76.805,43.692-119.584,52.415c-42.779,8.723-90.979,2.108-123.026-27.829c-0.556-0.519-30.292,2.864-32.919,2.612
			c-0.087-0.009-0.155,0.076-0.139,0.162l31.359,168.644c59.423,2.042,118.596,6.381,178.174,9.53
			c42.276,2.234,88.233,0.092,129.479,10.709c39.667,10.211,81.67,5.269,122.459,13.384c3.706,0.737,7.52,1.602,10.572,3.851
			c3.052,2.249,5.156,6.256,4.084,9.917c-1.231,4.207-5.829,6.244-9.908,7.747c-16.036,5.91-32.073,11.819-48.109,17.729
			c-6.253,2.304-13.678,6.248-13.489,12.967c0.16,5.69,56.249,6.966,63.476,7.379c33.946,1.94,70.107-5.385,100.406-20.936
			c8.931-4.583,17.507-9.972,26.917-13.442c9.997-3.686,20.652-5.103,31.223-6.335c53.551-6.239,107.479-8.344,161.345-10.444
			c143.132-5.581,285.972-5.128,428.993-8.075c20.901-0.431,27.913-28.042,9.8-38.479
			C3204.081,2493.511,3164.524,2462.848,3129.874,2427.27z"/>
		<path style="fill:#7D97F4;" d="M3038.456,2956.56H648.426c-116.681,0-212.148-95.466-212.148-212.148v-241.889
			c0-22.4,18.327-40.728,40.728-40.728H3214.28c22.4,0,40.728,18.328,40.728,40.728v237.485
			C3255.008,2859.112,3157.56,2956.56,3038.456,2956.56z"/>
		
			<linearGradient id="SVGID_00000055684162217337652550000016932110154985830302_" gradientUnits="userSpaceOnUse" x1="2088.0071" y1="1000.6221" x2="2020.1857" y2="1574.4908">
			<stop  offset="0" style="stop-color:#09005D"/>
			<stop  offset="1" style="stop-color:#1A0F91"/>
		</linearGradient>
		<path style="fill:url(#SVGID_00000055684162217337652550000016932110154985830302_);" d="M3199.256,3255H506.838
			c-34.379,0-62.507-28.128-62.507-62.507v-420.257c0-6.6,5.4-12,12-12H3251.06c6.6,0,12,5.4,12,12v418.96
			C3263.06,3226.288,3234.348,3255,3199.256,3255z"/>
		<path style="fill:#BDD0FB;" d="M436.858,2948.026l-0.144,40.728l572.442,2.025c0.109-13.602,0.275-27.175,0.55-40.724
			L436.858,2948.026z"/>
		<path style="fill:#BDD0FB;" d="M1577.484,2952.063l-493.295-1.747c-0.211,13.583-0.363,27.155-0.456,40.728l493.519,1.747
			C1577.396,2979.215,1577.499,2965.633,1577.484,2952.063z"/>
		<path style="fill:#BDD0FB;" d="M1633.95,2952.262c0,13.576,0,27.155,0,40.731l469.146,1.661
			c0.25-13.586,0.476-27.162,0.641-40.728L1633.95,2952.262z"/>
		<path style="fill:#BDD0FB;" d="M3240.604,2957.95l-1043.253-3.692c0,13.566,0,27.145,0,40.731l1043.108,3.689L3240.604,2957.95z"
			/>
		<g>
			<path style="fill:#91B3FA;" d="M1384.918,2379.619c0,0-273.178-989.01-783.025-1515.257
				c-34.273-35.375-94.077-19.049-105.322,28.905C421.375,1213.924,290.141,2182.989,1384.918,2379.619z"/>
			<path style="opacity:0.5;fill:#FFFFFF;" d="M1283.146,2318.952c2.524,2.291-0.562,6.176-3.37,4.243
				c-103.533-71.22-506.704-425.066-677.624-1153.571c-0.549-2.34,2.885-3.366,3.633-1.082
				C660.978,1336.837,884.096,1956.674,1283.146,2318.952z"/>
		</g>
		<g>
			<path style="fill:#BDD0FB;" d="M1375.123,2480.215c0,0,16.644-1147.784-352.849-1872.075
				c-24.839-48.688-91.871-49.778-118.1-1.756C728.785,927.495,298.408,1927.85,1375.123,2480.215z"/>
			<path style="opacity:0.5;fill:#FFFFFF;" d="M1287.897,2383.321c1.924,3.248-2.458,6.46-4.786,3.509
				c-85.851-108.782-396.943-614.594-353.227-1450.611c0.141-2.686,4.016-2.718,4.099-0.031
				C940.189,1134.214,983.642,1869.732,1287.897,2383.321z"/>
		</g>
		<g>
			<g>
				
					<linearGradient id="SVGID_00000142145081640144345540000006180273340789136573_" gradientUnits="userSpaceOnUse" x1="1542.1727" y1="1836.5306" x2="1599.401" y2="2932.0593">
					<stop  offset="0" style="stop-color:#FF928E"/>
					<stop  offset="1" style="stop-color:#FE7062"/>
				</linearGradient>
				<path style="fill:url(#SVGID_00000142145081640144345540000006180273340789136573_);" d="M2704.563,2507.227
					c-1.032-9.682-2.089-19.381-3.154-28.986c-10.926-98.562-61.226-187.034-137.782-242.098l-5.93-4.26
					c-92.207-66.319-198.137-107.115-308.428-118.779c0,0-224.276-18.248-254.333-20.477
					c-173.425-486.567-1217.175-518.941-1498.106,306.095c0,0-25.823,69.936-39.484,105.743
					c-22.036,57.758,19.322,120.117,80.683,121.644c36.172,0.9,72.225,1.942,108.175,2.88c8.965,2.48,18.204,3.842,27.523,3.842
					h166.136c33.305,0,66.542,0,99.724,0H2430.87l186.621-13.173C2670.937,2615.897,2710.685,2564.628,2704.563,2507.227z"/>
				
					<linearGradient id="SVGID_00000013185306575482007380000017569165984336143000_" gradientUnits="userSpaceOnUse" x1="2774.5273" y1="2420.6138" x2="2417.8911" y2="2812.1096">
					<stop  offset="0" style="stop-color:#FF928E"/>
					<stop  offset="1" style="stop-color:#FE7062"/>
				</linearGradient>
				<path style="fill:url(#SVGID_00000013185306575482007380000017569165984336143000_);" d="M2698.358,2581.915h-5.586
					c-10.875,0-19.692-9.512-19.692-21.245v-106.754c0-11.733,8.816-21.244,19.692-21.244l0,0c10.445,0,19.073,8.797,19.661,20.047
					l5.585,106.755C2718.657,2571.658,2709.67,2581.915,2698.358,2581.915z"/>
				<path style="opacity:0.89;fill:#FFFFFF;" d="M2629.062,2412.183h58.634c-21.824-71.382-65.115-133.636-124.069-176.039
					l-5.93-4.261c-6.11-4.393-12.289-8.659-18.517-12.829c11.97,45.048,26.728,106.821,36.445,148.279
					C2581.815,2393.734,2603.816,2412.183,2629.062,2412.183z"/>
				
					<linearGradient id="SVGID_00000148636527534922667910000002162769555707617202_" gradientUnits="userSpaceOnUse" x1="1832.1598" y1="1716.469" x2="1735.4359" y2="1874.2813">
					<stop  offset="0" style="stop-color:#FF928E"/>
					<stop  offset="1" style="stop-color:#FE7062"/>
				</linearGradient>
				<path style="fill:url(#SVGID_00000148636527534922667910000002162769555707617202_);" d="M1450.487,2167.641h181.116
					c14.128,0,24.086,15.146,19.188,29.442c-8.287,24.186-28.024,55.035-74.938,58.638c-42.191,3.24-95.372-22.533-135.484-47.022
					C1422.183,2197.597,1429.592,2167.641,1450.487,2167.641z"/>
				
					<linearGradient id="SVGID_00000055665075541174319030000018145119829398652601_" gradientUnits="userSpaceOnUse" x1="870.7697" y1="2819.0852" x2="972.5844" y2="2315.1035">
					<stop  offset="0" style="stop-color:#09005D"/>
					<stop  offset="1" style="stop-color:#1A0F91"/>
				</linearGradient>
				<circle style="fill:url(#SVGID_00000055665075541174319030000018145119829398652601_);" cx="917.21" cy="2589.206" r="239.09"/>
				
					<linearGradient id="SVGID_00000047035199384399244820000014121644645166832566_" gradientUnits="userSpaceOnUse" x1="2119.8667" y1="1006.5659" x2="184.1748" y2="3553.8457">
					<stop  offset="0" style="stop-color:#FF928E"/>
					<stop  offset="1" style="stop-color:#FE7062"/>
				</linearGradient>
				
					<circle style="fill:url(#SVGID_00000047035199384399244820000014121644645166832566_);" cx="917.21" cy="2589.206" r="194.167"/>
				
					<linearGradient id="SVGID_00000028288875531604912160000012939928438629297554_" gradientUnits="userSpaceOnUse" x1="2315.7339" y1="3057.5325" x2="2331.0063" y2="2441.5537">
					<stop  offset="0" style="stop-color:#09005D"/>
					<stop  offset="1" style="stop-color:#1A0F91"/>
				</linearGradient>
				
					<circle style="fill:url(#SVGID_00000028288875531604912160000012939928438629297554_);" cx="2327.345" cy="2589.206" r="239.09"/>
				
					<linearGradient id="SVGID_00000013181401771511765470000015939521598274229133_" gradientUnits="userSpaceOnUse" x1="2481.4849" y1="1605.432" x2="2250.6948" y2="3078.4182">
					<stop  offset="0" style="stop-color:#FF928E"/>
					<stop  offset="1" style="stop-color:#FE7062"/>
				</linearGradient>
				
					<circle style="fill:url(#SVGID_00000013181401771511765470000015939521598274229133_);" cx="2327.345" cy="2589.206" r="194.167"/>
				<path style="opacity:0.7;fill:#FFFFFF;" d="M2485.745,2660.989c-0.633,0-1.274-0.124-1.895-0.385
					c-2.478-1.046-3.636-3.905-2.587-6.382c8.71-20.587,13.126-42.458,13.126-65.014c0-92.112-74.935-167.046-167.044-167.046
					c-28.571,0-56.767,7.338-81.539,21.22c-2.338,1.322-5.31,0.485-6.629-1.864c-1.315-2.35-0.478-5.317,1.869-6.629
					c26.222-14.7,56.064-22.466,86.3-22.466c97.478,0,176.784,79.305,176.784,176.786c0,23.864-4.675,47.019-13.896,68.809
					C2489.448,2659.876,2487.643,2660.989,2485.745,2660.989z"/>
				<path style="opacity:0.7;fill:#FFFFFF;" d="M1080.3,2660.989c-0.633,0-1.275-0.124-1.895-0.385
					c-2.478-1.046-3.636-3.905-2.587-6.382c8.71-20.587,13.125-42.458,13.125-65.014c0-92.112-74.934-167.046-167.043-167.046
					c-28.57,0-56.765,7.338-81.54,21.22c-2.344,1.322-5.312,0.485-6.629-1.864c-1.315-2.35-0.478-5.317,1.869-6.629
					c26.225-14.7,56.066-22.466,86.3-22.466c97.478,0,176.783,79.305,176.783,176.786c0,23.864-4.675,47.019-13.896,68.809
					C1084.002,2659.876,1082.198,2660.989,1080.3,2660.989z"/>
				<path style="opacity:0.7;fill:#FFFFFF;" d="M1206.512,2517.022c-2.293,0-4.335-1.627-4.78-3.961
					c-21.117-111.03-84.364-181.708-187.985-210.065c-77.764-21.272-150.37-9.45-151.09-9.326c-2.649,0.433-5.162-1.346-5.612-3.995
					c-0.447-2.649,1.339-5.16,3.99-5.612c3.032-0.504,75.18-12.298,154.972,9.454c74.04,20.188,168.023,74.345,195.294,217.727
					c0.502,2.639-1.232,5.188-3.873,5.692C1207.118,2516.993,1206.814,2517.022,1206.512,2517.022z"/>
				<path style="opacity:0.7;fill:#FFFFFF;" d="M2035.323,2553.455c-2.62,0-4.781-2.083-4.865-4.718
					c-2.772-88.56,20.992-157.963,70.628-206.28c81.885-79.714,207.464-73.36,208.724-73.293c2.685,0.157,4.734,2.458,4.577,5.14
					c-0.155,2.687-2.472,4.675-5.141,4.58c-1.219-0.076-122.664-6.121-201.424,70.602c-47.558,46.329-70.312,113.265-67.63,198.947
					c0.083,2.686-2.026,4.936-4.716,5.017C2035.426,2553.455,2035.374,2553.455,2035.323,2553.455z"/>
				<path style="fill:#91B3FA;" d="M969.346,2129.507h372.584c14.047,0,25.435-11.388,25.435-25.435v-201.025
					c0-41.253-35.563-73.368-76.635-69.503c-201.406,18.957-330.448,84.891-382.898,200.548
					C887.562,2078.791,920.266,2129.507,969.346,2129.507z"/>
				<path style="fill:#91B3FA;" d="M1404.965,2110.339v-246.536c0-10.561,9.125-18.853,19.633-17.789
					c222.137,22.483,370.115,102.459,408.936,267.06c1.978,8.385-4.39,16.434-13.005,16.434h-396.395
					C1413.547,2129.507,1404.965,2120.925,1404.965,2110.339z"/>
				<path style="fill:#91B3FA;" d="M1994.937,2092.627c-48.093-129.001-133.749-214.375-241.754-260.739
					c49.416,113.646,94.145,215.276,149.426,281.399C1935.143,2120.173,1965.897,2113.115,1994.937,2092.627z"/>
				<path style="opacity:0.7;fill:#FFFFFF;" d="M1411.99,2593.945c-15.608,0-28.584-12.572-29.018-28.222l-20.092-724.996
					c-0.411-14.782,11.279-27.318,26.055-27.947c102.184-4.349,193.314-4.736,273.845,34.944
					c93.255,45.948,159.451,138.262,208.315,290.513l0.229,0.713l7.915,447.979l-466.815,7.013
					C1412.279,2593.942,1412.136,2593.945,1411.99,2593.945z M1393.148,2565.438c0.285,10.162,8.71,18.325,18.843,18.325
					c0.093,0,0.189,0,0.282-0.003l456.606-6.861l-7.709-436.265c-107.215-333.21-292.558-325.325-471.803-317.679
					c-9.247,0.391-16.566,8.24-16.31,17.487L1393.148,2565.438z"/>
				
					<linearGradient id="SVGID_00000127764874942809803660000004793563278119304102_" gradientUnits="userSpaceOnUse" x1="2297.2861" y1="1546.1064" x2="2154.7466" y2="1703.9181">
					<stop  offset="0" style="stop-color:#FF928E"/>
					<stop  offset="1" style="stop-color:#FE7062"/>
				</linearGradient>
				<path style="fill:url(#SVGID_00000127764874942809803660000004793563278119304102_);" d="M1911.877,2125.643l-41.529-43.534
					c-17.306-18.14-39.086-30.523-62.738-35.669l-82.14-17.87c-22.54-4.903-44.115,12.144-46.582,36.808l-0.579,5.794
					c-2.513,25.122,15.88,46.971,39.3,46.685l105.819-1.297c14.758-0.181,28.169,9.231,33.996,23.858l1.949,4.892
					c2.587,6.492,8.509,10.701,15.06,10.701h26.021C1915.172,2156.01,1922.432,2136.708,1911.877,2125.643z"/>
				
					<ellipse transform="matrix(0.287 -0.9579 0.9579 0.287 -1846.9999 2247.2632)" style="fill:#FFFFFF;" cx="586.073" cy="2364.333" rx="60.305" ry="32.077"/>
				
					<linearGradient id="SVGID_00000175295187012573671220000011280154059624773020_" gradientUnits="userSpaceOnUse" x1="703.6865" y1="2362.1372" x2="169.1348" y2="2793.2273">
					<stop  offset="0" style="stop-color:#FEBBBA"/>
					<stop  offset="1" style="stop-color:#FF928E"/>
				</linearGradient>
				<path style="fill:url(#SVGID_00000175295187012573671220000011280154059624773020_);" d="M568.074,2581.915H454.787
					c-9.9,0-17.999-8.1-17.999-17.999v-93.468c0-9.9,8.1-17.999,17.999-17.999h113.288c9.899,0,17.999,8.1,17.999,17.999v93.468
					C586.073,2573.816,577.974,2581.915,568.074,2581.915z"/>
			</g>
			<g>
				<g>
					
						<linearGradient id="SVGID_00000111886439790634744010000017956275405078106546_" gradientUnits="userSpaceOnUse" x1="1682.2391" y1="1671.6777" x2="-89.1528" y2="1846.3225">
						<stop  offset="0" style="stop-color:#4F52FF"/>
						<stop  offset="1" style="stop-color:#4042E2"/>
					</linearGradient>
					<path style="fill:url(#SVGID_00000111886439790634744010000017956275405078106546_);" d="M1940.961,1834.61H821.613
						c-14.543,0-26.443-11.899-26.443-26.442v-213.636c0-14.543,11.899-26.443,26.443-26.443h1119.348
						c14.543,0,26.443,11.899,26.443,26.443v213.636C1967.404,1822.711,1955.505,1834.61,1940.961,1834.61z"/>
					<path style="fill:#BDD0FB;" d="M802.297,1712.462c-2.801,0-5.078-2.26-5.091-5.065c-0.013-2.811,2.254-5.104,5.064-5.117
						l1158.239-6.022c0,0,0.017,0,0.026,0c2.801,0,5.078,2.26,5.091,5.064c0.013,2.811-2.254,5.104-5.064,5.118l-1158.239,6.022
						C802.324,1712.462,802.304,1712.462,802.297,1712.462z"/>
					<path style="fill:#BDD0FB;" d="M1469.03,1703.87v26.39c0,8.226-7.146,16.855-15.372,16.855h-138.115
						c-8.226,0-15.377-8.63-15.377-16.855v-26.39h-21.351c-0.012,0-1.301-0.621-1.301-0.383v47.359
						c0,8.226,8.409,14.803,16.634,14.803h180.904c8.226,0,14.57-6.578,14.57-14.803v-47.359c0-0.238-0.244,0.383-0.254,0.383
						H1469.03z"/>
				</g>
				<g>
					
						<linearGradient id="SVGID_00000080202941262104662640000005614196512701131172_" gradientUnits="userSpaceOnUse" x1="3155.6147" y1="1541.8771" x2="381.7779" y2="1427.4906">
						<stop  offset="0" style="stop-color:#FF928E"/>
						<stop  offset="1" style="stop-color:#FE7062"/>
					</linearGradient>
					<path style="fill:url(#SVGID_00000080202941262104662640000005614196512701131172_);" d="M1847.311,1573.309H994.43
						c-14.543,0-26.443-11.899-26.443-26.443v-153.052c0-14.543,11.899-26.443,26.443-26.443h852.881
						c14.543,0,26.442,11.899,26.442,26.443v153.052C1873.754,1561.41,1861.854,1573.309,1847.311,1573.309z"/>
					<path style="opacity:0.7;fill:#FFFFFF;" d="M973.494,1480.084c-2.801,0-5.078-2.26-5.091-5.064
						c-0.013-2.811,2.254-5.104,5.065-5.117l894.953-4.653h0.027c2.801,0,5.078,2.26,5.091,5.064
						c0.013,2.811-2.254,5.104-5.064,5.118l-894.953,4.653H973.494z"/>
					<path style="opacity:0.7;fill:#FFFFFF;" d="M1489.623,1473.227v19.452c0,6.356-6.477,11.438-12.832,11.438h-106.719
						c-6.356,0-12.244-5.082-12.244-11.438v-19.452h-16.135c0,0-2.399-1.419-2.399-1.235v36.594c0,6.356,7.891,9.946,14.247,9.946
						h139.782c6.356,0,10.716-3.59,10.716-9.946v-36.594c0-0.184,0.353,1.235,0.353,1.235H1489.623z"/>
				</g>
			</g>
		</g>
		<g>
			
				<linearGradient id="SVGID_00000095311683033047916040000015586266742178827140_" gradientUnits="userSpaceOnUse" x1="2344.3274" y1="2592.2554" x2="2361.0188" y2="3023.8386">
				<stop  offset="0" style="stop-color:#4F52FF"/>
				<stop  offset="1" style="stop-color:#4042E2"/>
			</linearGradient>
			<path style="fill:url(#SVGID_00000095311683033047916040000015586266742178827140_);" d="M2326.957,2814.659
				c0,0-12.236,22.309-23.84,81.454c-2.095,10.682,5.424,20.842,16.263,21.836c19.178,1.761,48.7,3.993,72.334,3.677
				c10.894-0.145,19.336-9.688,17.953-20.495c-2.758-21.542-11.143-56.863-36.517-84.269L2326.957,2814.659z"/>
			
				<linearGradient id="SVGID_00000010998351024074313990000007065010762370703775_" gradientUnits="userSpaceOnUse" x1="4937.6235" y1="2792.8743" x2="4995.2197" y2="2792.8743" gradientTransform="matrix(1 -0.0065 0.0065 1 -2639.866 27.3777)">
				<stop  offset="0" style="stop-color:#FEBBBA"/>
				<stop  offset="1" style="stop-color:#FF928E"/>
			</linearGradient>
			<path style="fill:url(#SVGID_00000010998351024074313990000007065010762370703775_);" d="M2315.644,2746.988l15.118,79.552
				c0,0,14.506,10.646,43.014,2.675l-7.524-85.65L2315.644,2746.988z"/>
			<g>
				<path style="fill:#7D97F4;" d="M2559.574,2905.74c-30.577-0.856-46.392-4.456-54.569-7.798c-0.019,3.04-0.001,6.135,0.097,9.34
					c0.106,3.424,2.642,6.159,5.762,6.139l167.887-1.084c5.357-0.034,8.489-6.249,6.167-11.161
					C2662.906,2902.994,2606.841,2907.063,2559.574,2905.74z"/>
				
					<linearGradient id="SVGID_00000165939825987361337730000011597096762199756439_" gradientUnits="userSpaceOnUse" x1="2665.4006" y1="2500.4946" x2="2574.7922" y2="3001.2263">
					<stop  offset="0" style="stop-color:#4F52FF"/>
					<stop  offset="1" style="stop-color:#4042E2"/>
				</linearGradient>
				<path style="fill:url(#SVGID_00000165939825987361337730000011597096762199756439_);" d="M2684.918,2901.176
					c-0.203-0.428-0.376-0.864-0.665-1.266c-14.827-20.717-52.59-61.97-127.21-79.864l-35.797-1.129c0,0-15.94,27.705-16.241,79.025
					c8.176,3.342,23.992,6.942,54.569,7.798C2606.841,2907.063,2662.906,2902.994,2684.918,2901.176z"/>
			</g>
			
				<linearGradient id="SVGID_00000042733607575144107180000005250771216403068350_" gradientUnits="userSpaceOnUse" x1="2543.9172" y1="2739.1282" x2="2520.0432" y2="2947.4856">
				<stop  offset="0" style="stop-color:#FEBBBA"/>
				<stop  offset="1" style="stop-color:#FF928E"/>
			</linearGradient>
			<path style="fill:url(#SVGID_00000042733607575144107180000005250771216403068350_);" d="M2514.608,2764.665
				c0.397,2.668,5.304,43.223,7.204,58.947c0.451,3.736,3.157,6.628,6.571,7.036c6.095,0.728,15.959,1.39,24.589-0.379
				c4.655-0.954,8.025-5.426,8.025-10.626v-63.659L2514.608,2764.665z"/>
			
				<linearGradient id="SVGID_00000176755353504813212750000007967259440280855457_" gradientUnits="userSpaceOnUse" x1="2414.5593" y1="2076.2302" x2="2414.5593" y2="3048.3682">
				<stop  offset="0" style="stop-color:#09005D"/>
				<stop  offset="1" style="stop-color:#1A0F91"/>
			</linearGradient>
			<path style="fill:url(#SVGID_00000176755353504813212750000007967259440280855457_);" d="M2485.889,2024.564
				c0,0,86.341,328.126,84.78,741.04c-0.028,7.528-5.314,14.026-12.681,15.577c-10.855,2.287-26.813,5.001-40.024,4.631
				c-7.052-0.198-12.948-5.428-14.133-12.382c-12.106-70.996-67.552-499.568-107.137-564.5c0,0-23.87,384.835-15.545,569.643
				c0.207,4.595-3.158,8.582-7.727,9.109c-6.931,0.802-34.223,1.41-48.335-0.089c-5.357-0.569-9.679-4.619-10.444-9.951
				c-8.624-60.086-58.257-417.739-56.147-675.377c0.119-14.529,38.423-77.701,38.423-77.701H2485.889z"/>
			
				<linearGradient id="SVGID_00000060003813384814019370000015550869438387017615_" gradientUnits="userSpaceOnUse" x1="2215.5149" y1="1657.7601" x2="2299.2307" y2="1417.4152">
				<stop  offset="0" style="stop-color:#53D8FF"/>
				<stop  offset="1" style="stop-color:#3840F7"/>
			</linearGradient>
			<path style="fill:url(#SVGID_00000060003813384814019370000015550869438387017615_);" d="M2216.744,1739.191
				c-23.469-64.23-14.956-141.788-14.866-142.563l6.467,0.739c-0.086,0.761-8.418,76.832,14.517,139.589L2216.744,1739.191z"/>
			<g>
				
					<linearGradient id="SVGID_00000095322937293611693970000010352411544667272628_" gradientUnits="userSpaceOnUse" x1="2399.3735" y1="1526.838" x2="2129.9312" y2="2509.2266">
					<stop  offset="0" style="stop-color:#4F52FF"/>
					<stop  offset="1" style="stop-color:#4042E2"/>
				</linearGradient>
				<path style="fill:url(#SVGID_00000095322937293611693970000010352411544667272628_);" d="M2566.825,1560.807
					c-25.317-28.598-84.938-62.594-143.269-58.948c-60.721,3.767-116.622,15.718-120.672,16.608c-0.162,0.04-0.243,0.04-0.243,0.04
					c-27.95,3.686-52.215,6.765-69.754,8.993c-20.497,2.591-39.252,12.719-52.781,28.355
					c-53.592,62.018-160.133,304.708,42.405,268.251c-2.279-10.432-4.231-23.997-3.954-39.854
					c0.242-13.836,2.118-25.789,4.284-35.298c1.094,5.389,2.471,10.694,4.091,15.92c44.275,140.157,46.625,256.819,46.503,283.675
					c0,3.686,2.188,6.968,5.59,8.305c58.209,23.333,170.334,9.439,207.926,3.848c6.926-1.013,11.544-7.453,10.613-14.38
					c-11.221-81.299,19.403-194.477,50.756-283.148C2574.927,1706.634,2566.825,1560.807,2566.825,1560.807z"/>
			</g>
			<g>
				
					<linearGradient id="SVGID_00000067209886790332010850000009086905040034907048_" gradientUnits="userSpaceOnUse" x1="2402.1877" y1="1382.4774" x2="2311.0315" y2="1776.4022">
					<stop  offset="0" style="stop-color:#FEBBBA"/>
					<stop  offset="1" style="stop-color:#FF928E"/>
				</linearGradient>
				<path style="fill:url(#SVGID_00000067209886790332010850000009086905040034907048_);" d="M2333.308,1413.153l-11.222,114.66
					c0,0,64.502,19.427,111.417-13.675l-32.979-104.208L2333.308,1413.153z"/>
				<g>
					
						<linearGradient id="SVGID_00000061467727174170233900000014924703392619715487_" gradientUnits="userSpaceOnUse" x1="1266.5044" y1="-271.6296" x2="1104.7922" y2="-57.6977" gradientTransform="matrix(0.9332 -0.3594 0.3594 0.9332 1329.2375 2036.3817)">
						<stop  offset="0" style="stop-color:#FEBBBA"/>
						<stop  offset="1" style="stop-color:#FF928E"/>
					</linearGradient>
					<path style="fill:url(#SVGID_00000061467727174170233900000014924703392619715487_);" d="M2442.796,1315.438
						c0.767,1.99,4.008,142.916,4.008,142.916l-80.506,0.141l-22.917-133.112C2343.381,1325.382,2429.968,1282.13,2442.796,1315.438
						z"/>
					
						<linearGradient id="SVGID_00000170271812243300605100000007378981157251559615_" gradientUnits="userSpaceOnUse" x1="1143.0029" y1="-220.254" x2="1336.1716" y2="-220.254" gradientTransform="matrix(0.9332 -0.3594 0.3594 0.9332 1329.2375 2036.3817)">
						<stop  offset="0" style="stop-color:#09005D"/>
						<stop  offset="1" style="stop-color:#1A0F91"/>
					</linearGradient>
					<path style="fill:url(#SVGID_00000170271812243300605100000007378981157251559615_);" d="M2370.974,1342.024
						c-2.616,2.455-3.946,5.959-3.616,9.531l6.482,69.991c0.099,1.062,0.329,2.09,0.718,3.083
						c2.144,5.476,10.371,22.359,27.505,12.99c14.604-7.985,28.136-15.122,39.126-15.466c6.417-0.2,11.712,4.967,11.836,11.387
						c0.255,13.224,0.23,39.916-3.123,63.628c-0.84,5.943-6.162,10.2-12.153,9.821c-15.808-0.998-46.618-3.871-71.363-11.821
						c-4.065-1.306-7.066-4.728-7.841-8.927c-3.41-18.476-13.181-70.222-18.187-84.405c-4.652-13.177-22.729-17.74-31.174-19.173
						c-3.206-0.544-6.018-2.376-7.802-5.095c-5.349-8.153-13.06-25.759,8.147-39.102c5.273-3.317,6.792-10.381,3.584-15.721
						c-5.748-9.569-9.881-24.331,6.886-36.962c16.974-12.787,33.418-6.765,43.488-0.315c4.456,2.854,10.455,2.681,14.391-0.857
						c1.75-1.573,4.151-2.477,7.415-1.652c6.155,1.557,12.3-1.802,13.898-7.946c2.74-10.535,10.172-22.36,29.607-23.424
						c35.645-1.952,48.202,35.176,44.235,59.516c-3.968,24.341-42.734,24.259-63.772,17.244
						C2393.806,1323.2,2378.181,1335.259,2370.974,1342.024z"/>
					
						<linearGradient id="SVGID_00000116219888949118079100000000110678106492019089_" gradientUnits="userSpaceOnUse" x1="1029.6578" y1="-102.2115" x2="1159.3661" y2="-235.2887" gradientTransform="matrix(0.9332 -0.3594 0.3594 0.9332 1329.2375 2036.3817)">
						<stop  offset="0" style="stop-color:#FEBBBA"/>
						<stop  offset="1" style="stop-color:#FF928E"/>
					</linearGradient>
					<path style="fill:url(#SVGID_00000116219888949118079100000000110678106492019089_);" d="M2343.01,1427.671
						c0,0,5.093-42.709-11.603-49.075c-16.696-6.366-37.01,3.552-25.759,31.082
						C2319.645,1443.923,2343.01,1427.671,2343.01,1427.671z"/>
				</g>
			</g>
			<g>
				
					<linearGradient id="SVGID_00000047746288688521738430000016566308078085803156_" gradientUnits="userSpaceOnUse" x1="2944.9309" y1="2583.1636" x2="2985.4666" y2="2936.0603">
					<stop  offset="0" style="stop-color:#4F52FF"/>
					<stop  offset="1" style="stop-color:#4042E2"/>
				</linearGradient>
				<path style="fill:url(#SVGID_00000047746288688521738430000016566308078085803156_);" d="M3027.61,2779.255
					c-17.501,15.972-31.703,0.296-36.459-1.688c0.193,3.137-38.23,10.978-64.928,14.04c-26.698,3.061-32.028,29.212-19.86,34.501
					c12.168,5.291,52.906,6.878,74.069,2.117c18.157-4.085,33.199,2.734,50.136,4.084c5.394,0.431,10.267-3.227,11.376-8.525
					C3047.191,2798.721,3027.61,2779.255,3027.61,2779.255z"/>
			</g>
			<g>
				
					<linearGradient id="SVGID_00000119109356491355146740000015992585808401908381_" gradientUnits="userSpaceOnUse" x1="-5393.5825" y1="2378.4297" x2="-5601.1714" y2="2625.0945" gradientTransform="matrix(0.9888 0.1491 -0.1491 0.9888 9024.0732 -225.8629)">
					<stop  offset="0" style="stop-color:#09005D"/>
					<stop  offset="1" style="stop-color:#1A0F91"/>
				</linearGradient>
				<path style="fill:url(#SVGID_00000119109356491355146740000015992585808401908381_);" d="M2935.566,1440.703
					c0,0-32.498-88.255,74.95-78.164c0,0,49.477-15.059,58.46,32.342c0,0,35.493,17.108,17.166,61.635
					c0,0,91.883-50.444,145.511,28.828c53.628,79.272,21.092,131.222-17.96,148.859c0,0,35.187,12.125,24.601,51.592
					c-10.585,39.466-86.067,76.421-138.846,37.24c0,0-130.463,35.386-140.402-58.787c0,0-67.132-31.598-12.658-117.843
					C3000.862,1460.161,2935.566,1440.703,2935.566,1440.703z"/>
				
					<linearGradient id="SVGID_00000011003811263141728940000009857859447075604413_" gradientUnits="userSpaceOnUse" x1="5505.0439" y1="1157.0107" x2="5098.2422" y2="1727.8463" gradientTransform="matrix(-0.9922 -0.1247 -0.1247 0.9922 8264.5254 715.4178)">
					<stop  offset="0" style="stop-color:#FF928E"/>
					<stop  offset="1" style="stop-color:#FE7062"/>
				</linearGradient>
				<path style="fill:url(#SVGID_00000011003811263141728940000009857859447075604413_);" d="M2945.955,1629.054
					c21.129-6.334,82.651-18.03,141.169,35.973c9.925,9.159,13.981,23.076,10.441,36.109
					c-15.717,57.865-57.187,228.823-20.825,302.794c0,0-64.077,70.636-133.983,13.705c0,0-31.365-136.7-72.447-196.711
					c-28.363-41.431,45.226-155.58,63.845-183.157C2936.974,1633.591,2941.129,1630.501,2945.955,1629.054z"/>
				
					<linearGradient id="SVGID_00000154413117196929860860000006569838484163301253_" gradientUnits="userSpaceOnUse" x1="-5460.2939" y1="2521.5269" x2="-5441.2222" y2="2386.1199" gradientTransform="matrix(0.9602 0.2794 -0.2794 0.9602 8902.9297 797.6744)">
					<stop  offset="0" style="stop-color:#FEBBBA"/>
					<stop  offset="1" style="stop-color:#FF928E"/>
				</linearGradient>
				<path style="fill:url(#SVGID_00000154413117196929860860000006569838484163301253_);" d="M3029.992,1508.509
					c0,0,5.552,93.974,7.903,132.968c0,0-34.537,15.704-67.08-10.802c0,0,5.704-88.834,0.77-104.643L3029.992,1508.509z"/>
				
					<linearGradient id="SVGID_00000062876363170128261780000005931334384504244878_" gradientUnits="userSpaceOnUse" x1="-5771.7192" y1="2556.0164" x2="-5613.5825" y2="2737.8311" gradientTransform="matrix(0.9888 0.1491 -0.1491 0.9888 9024.0732 -225.8629)">
					<stop  offset="0" style="stop-color:#FEBBBA"/>
					<stop  offset="1" style="stop-color:#FF928E"/>
				</linearGradient>
				<path style="fill:url(#SVGID_00000062876363170128261780000005931334384504244878_);" d="M2941.624,1416.981
					c0,0-65.785,124.241-12.941,150.667c52.844,26.427,99.694-61.879,99.694-61.879s10.464-64.573-12.016-82.982
					C2993.88,1404.376,2941.624,1416.981,2941.624,1416.981z"/>
				
					<linearGradient id="SVGID_00000135675505099012352310000003374165939406546851_" gradientUnits="userSpaceOnUse" x1="-5493.0063" y1="2294.7578" x2="-5700.5967" y2="2541.4241" gradientTransform="matrix(0.9888 0.1491 -0.1491 0.9888 9024.0732 -225.8629)">
					<stop  offset="0" style="stop-color:#09005D"/>
					<stop  offset="1" style="stop-color:#1A0F91"/>
				</linearGradient>
				<path style="fill:url(#SVGID_00000135675505099012352310000003374165939406546851_);" d="M2975.481,1384.855
					c0,0-36.03,13.815-38.984,31.352c-2.955,17.538,57.131,25.366,73.481,23.948l22.216,66.189c0,0,30.12-69.114,9.832-103.971
					C3021.738,1367.516,2975.481,1384.855,2975.481,1384.855z"/>
				
					<linearGradient id="SVGID_00000149382086514236349190000016940192652146038971_" gradientUnits="userSpaceOnUse" x1="-5732.209" y1="2521.6516" x2="-5574.0747" y2="2703.4639" gradientTransform="matrix(0.9888 0.1491 -0.1491 0.9888 9024.0732 -225.8629)">
					<stop  offset="0" style="stop-color:#FEBBBA"/>
					<stop  offset="1" style="stop-color:#FF928E"/>
				</linearGradient>
				<path style="fill:url(#SVGID_00000149382086514236349190000016940192652146038971_);" d="M3011.553,1499.536
					c0,0,26.627-40.749,42.365-18.627c15.738,22.121-22.784,45.488-38.52,35.703L3011.553,1499.536z"/>
				
					<linearGradient id="SVGID_00000096060891347931795140000013580396421023791240_" gradientUnits="userSpaceOnUse" x1="3014.7405" y1="1712.3173" x2="3077.563" y2="1831.9792">
					<stop  offset="0" style="stop-color:#FEBBBA"/>
					<stop  offset="1" style="stop-color:#FF928E"/>
				</linearGradient>
				<path style="fill:url(#SVGID_00000096060891347931795140000013580396421023791240_);" d="M3094.239,1677.889
					c0,0,81.77,116.814,52.566,210.265c-29.203,93.451-201.429-117.519-201.429-117.519l4.526-18.927l131.938,78.823
					c6.276,3.749,13.833-2.324,11.521-9.26l-22.484-67.454C3070.876,1753.818,3070.876,1718.773,3094.239,1677.889z"/>
				
					<linearGradient id="SVGID_00000125579016232173360060000003093344179882066332_" gradientUnits="userSpaceOnUse" x1="3317.4727" y1="2611.5415" x2="2792.8955" y2="2387.4041">
					<stop  offset="0" style="stop-color:#FEBBBA"/>
					<stop  offset="1" style="stop-color:#FF928E"/>
				</linearGradient>
				<path style="fill:url(#SVGID_00000125579016232173360060000003093344179882066332_);" d="M3076.462,2731.163
					c-18.569-45.107-66.365-171.469-78.252-227.426c-13.508-63.594-84.128-115.248-84.128-115.248l107.612-165.755l-34.686-12.779
					l-100.408,9.128c0,0-36.107,140.995-42.037,167.252c-2.387,10.564-0.724,21.621,4.654,31.021l206.707,344.842
					C3056.697,2763.498,3079.365,2738.216,3076.462,2731.163z"/>
				
					<linearGradient id="SVGID_00000086676603960430545540000009801335458569798792_" gradientUnits="userSpaceOnUse" x1="3207.844" y1="2408.3057" x2="3496.3606" y2="2281.9307">
					<stop  offset="0" style="stop-color:#FEBBBA"/>
					<stop  offset="1" style="stop-color:#FF928E"/>
				</linearGradient>
				<path style="fill:url(#SVGID_00000086676603960430545540000009801335458569798792_);" d="M3065.509,2385.213l63.896-198.99
					l-142.396,23.733l-3.179,149.75c0,0,7.242,309.167,8.224,353.076c0.354,15.875,2.444,39.938-0.823,64.021
					c-0.342,3.081,1.367,4.274,3.309,5.477c9.819,6.081,19.359,10.164,33.659-2.396l-3.081-11.638
					c-0.913-7.759,3.019-17.011,4.777-25.53c9.498-46.039,41.232-199.17,49.888-232.148c9.309-35.461,10.643-81.738-16.048-122.596
					L3065.509,2385.213z"/>
				
					<linearGradient id="SVGID_00000152983653336098286420000002557596845808273025_" gradientUnits="userSpaceOnUse" x1="4950.8252" y1="3003.0513" x2="4969.9009" y2="2344.948" gradientTransform="matrix(-1 -0.0095 -0.0095 1 8008.4194 56.9446)">
					<stop  offset="0" style="stop-color:#4F52FF"/>
					<stop  offset="1" style="stop-color:#4042E2"/>
				</linearGradient>
				<path style="fill:url(#SVGID_00000152983653336098286420000002557596845808273025_);" d="M2986.78,2264.723
					c0,0,84.921-13.5,128.717-6.573c1.491-0.287,2.968-0.532,4.457-0.812c3.907-17.579,7.047-31.7,8.561-38.502
					c20.772-93.307,43.966-193.93-58.069-254.774c-47.024,20.141-90.883,32.013-137.359,20.239c0,0,9.206,29.344-4.938,77.677
					l-49.535,171.938C2906.998,2237.773,2981.303,2255.824,2986.78,2264.723z"/>
				
					<linearGradient id="SVGID_00000062156317899015729040000003269803251542957977_" gradientUnits="userSpaceOnUse" x1="3178.219" y1="1973.276" x2="3343.3926" y2="1812.6276">
					<stop  offset="0" style="stop-color:#4F52FF"/>
					<stop  offset="1" style="stop-color:#4042E2"/>
				</linearGradient>
				<path style="fill:url(#SVGID_00000062156317899015729040000003269803251542957977_);" d="M2986.78,2264.723
					c0,0,84.921-13.5,128.717-6.573c1.491-0.287,2.968-0.532,4.457-0.812c3.907-17.579,7.047-31.7,8.561-38.502
					c20.772-93.307,43.966-193.93-58.069-254.774c-47.024,20.141-90.883,32.013-137.359,20.239
					c0.828,4.478,2.025,11.717,2.835,20.714c1.178,13.074,0.894,22.692,0.883,24.207c-0.086,11.43,11.738,34.932,62.983,87.628
					c-1.131,25.889-2.907,52.849-5.477,80.783C2992.181,2220.779,2989.64,2243.155,2986.78,2264.723z"/>
			</g>
			<g>
				
					<linearGradient id="SVGID_00000173846406005244816880000000974686829916132502_" gradientUnits="userSpaceOnUse" x1="2376.8125" y1="7939.2627" x2="2562.3616" y2="8228.9004" gradientTransform="matrix(0.7069 -0.7073 0.7073 0.7069 -360.7188 -294.2087)">
					<stop  offset="0" style="stop-color:#4F52FF"/>
					<stop  offset="1" style="stop-color:#4042E2"/>
				</linearGradient>
				<path style="fill:url(#SVGID_00000173846406005244816880000000974686829916132502_);" d="M3076.304,2730.268
					c-1.026,22.606-21.204,21.616-25.755,23.49c2.25,1.988-18.395,33.238-34.351,53.341c-15.957,20.103-1.89,41.359,9.899,36.71
					c11.79-4.648,40.366-31.097,51.437-48.608c9.499-15.024,24.26-20.581,36.608-31.111c3.933-3.354,4.752-9.115,1.922-13.441
					C3102.674,2730.183,3076.304,2730.268,3076.304,2730.268z"/>
			</g>
			
				<linearGradient id="SVGID_00000150062968151099197680000008961267621400625812_" gradientUnits="userSpaceOnUse" x1="2288.4512" y1="1496.4154" x2="2019.0094" y2="2478.802">
				<stop  offset="0" style="stop-color:#4F52FF"/>
				<stop  offset="1" style="stop-color:#4042E2"/>
			</linearGradient>
			<path style="fill:url(#SVGID_00000150062968151099197680000008961267621400625812_);" d="M2200.3,1538.837l26.631,226.039
				c4.059,49.752,24.136,108.767,60.954,137.999c0,0,2.685,58.665-6.486,71.55c-92.355,10.957-228.427-177.551-161.578-306.513
				L2200.3,1538.837z"/>
			
				<linearGradient id="SVGID_00000166650289863332735310000008365661018792531335_" gradientUnits="userSpaceOnUse" x1="2613.8567" y1="1585.665" x2="2344.4146" y2="2568.0525">
				<stop  offset="0" style="stop-color:#4F52FF"/>
				<stop  offset="1" style="stop-color:#4042E2"/>
			</linearGradient>
			<path style="fill:url(#SVGID_00000166650289863332735310000008365661018792531335_);" d="M2556.131,1550.22
				c42.488,77.757,73.227,156.709,78.805,238.221l-156.768,12.316L2556.131,1550.22z"/>
			<g>
				<g>
					<polygon style="fill:#FFFFFF;" points="3009.759,2244.979 2846.845,2162.66 2673.04,2228.094 2479,2170.739 2314.02,2238.51 
						2301.024,1772.723 2465.403,1671.377 2661.756,1771.921 2846.845,1644.186 3026.517,1769.015 					"/>
					<g>
						<polygon style="fill:#91B3FA;" points="2463.371,1682.347 2657.629,1783.03 2844.401,1658.297 3019.428,1768.617 
							3002.049,2234.479 2846.845,2147.451 2674.532,2218.541 2479,2158.542 2321.929,2228.094 2314.02,1772.228 						"/>
						<polygon style="fill:#91B3FA;" points="2657.629,1783.03 2674.532,2218.541 2846.845,2147.451 2844.401,1658.297 						"/>
						<g>
							<path style="fill:#7D97F4;" d="M2714.873,2015.045c-0.899,6.795-1.63,13.611-2.195,20.442
								c-0.135,1.63,0.194,3.845,1.822,4.004c0.98,0.096,1.795-0.698,2.456-1.429c2.804-3.101,5.817-7.101,4.46-11.055
								c-0.505-1.472-1.58-2.71-1.993-4.209c-0.622-2.256,0.353-4.657,0.102-6.983c-0.251-2.327-3.142-4.615-4.761-2.925
								L2714.873,2015.045z"/>
							<path style="fill:#7D97F4;" d="M2534.705,1908.876c0.292-2.05,0.042-4.125-0.92-6.012c-1.625-3.19-4.949-5.242-8.409-6.161
								s-7.095-0.852-10.674-0.778c-3.322,0.068-6.644,0.136-9.966,0.204c-0.982,0.02-1.993,0.046-2.894,0.439
								c-1.272,0.555-2.134,1.755-2.824,2.96c-2.222,3.881-3.318,8.398-3.121,12.866c-4.378,1.488-8.63-2.547-11.019-6.507
								c-2.757-4.571-4.739-9.608-5.836-14.833c-0.424-2.019-0.684-4.253,0.361-6.031c0.576-0.981,1.491-1.711,2.414-2.376
								c3.719-2.678,8.01-4.703,12.568-5.184c7.784-0.823,15.35,2.89,21.731,7.441c6.128,4.37,16.124,9.599,23,3.319
								c3.55-3.242,3.614-9.144,1.14-13.267c-4.017-6.697-14.262-10.2-20.937-13.582c-3.124-1.583-5.131-4.841-6.018-8.229
								s-0.803-6.944-0.713-10.446c9.238-3.649,20.095-2.936,28.776,1.891c1.232,0.685,2.546,1.638,2.692,3.041
								c0.149,1.441-0.99,2.644-1.889,3.781c-12.97,16.404,14.036,27.683,25.628,31.643c4.723,1.614,9.231,4.267,14.278,3.274
								c4.685-0.922,8.9-6.035,13.755-7.337c3.517-0.944,7.273-0.448,10.843-1.166c3.57-0.717,7.291-3.392,7.144-7.03
								c-0.12-2.962-2.725-5.191-5.315-6.633c0,0.283-4.489-3.268-4.914-4.037c-3.917-7.588,1.778-14.272,3.958-20.823
								c3.155-9.485-1.518-15.061,8.188-20.313c2.064-1.117,3.688-3.893,2.259-5.755c-1.287-1.677-3.842-1.255-5.956-1.241
								c-6.752,0.042-12.117-5.649-18.608-7.51c-3.401-0.975-7.002-0.865-10.54-0.917c-16.776-0.246-33.482-4.397-48.422-12.031
								c-11.029-5.635-17.966-6.397-29.84-5.148c-11.2,1.179-18.769,6.618-26.458,14.369c-1.749,1.763-3.448,3.693-5.717,4.705
								c-9.503,4.241-21.556,3.386-31.26,7.572c-11.551,4.983-14.81,20.481-25.361,27.333c-6.107,3.966-13.803,4.468-20.509,7.307
								c-9.927,4.202-14.506,12.93-20.144,21.425c-3.467,5.223-16.236,14.174-15.512,20.283c0.132,1.112,0.614,2.158,1.219,3.101
								c3.516,5.478,8.767,6.055,14.308,7.62c7.32,2.067,11.735,5.243,18.212,9.671c6.754,4.618,15.943,8.657,16.528,16.818
								c0.271,3.787-1.557,7.366-2.452,11.056c-4.033,16.642,10.935,31.591,25.503,40.591c14.568,9,31.757,17.891,36.391,34.376
								c0.422,1.503,0.778,3.133,1.908,4.208c4.253,4.045,7.438-5.104,8.727-8.013c0.83-1.873,0.078-4.121-1.219-5.706
								c-1.296-1.586-3.065-2.698-4.66-3.983c-5.381-4.337-8.871-10.943-9.423-17.832c-0.07-0.876-0.076-1.823,0.419-2.549
								c2.525-3.695,8.82-5.211,11.907-9.689c4.417-6.406,5.426-12.483,6.177-20.085c2.762-27.929,29.067-18.042,45.579-30.426
								C2531.865,1916.234,2534.176,1912.595,2534.705,1908.876z"/>
							<path style="fill:#7D97F4;" d="M2486.833,2053.42c1.69,3.441,3.077,6.689,3.445,9.456
								c1.601,12.031-8.758,26.835-13.163,37.82c-1.225,3.054-2.473,6.305-1.921,9.55c0.232,1.367,0.776,2.658,1.318,3.934
								c4,9.419,11.858,17.945,18.84,25.209c2.387-6.228,2.21-21.184,1.555-27.818c-0.216-2.188-0.594-4.479,0.213-6.524
								c2.585-6.561,10.999-15.589,16.801-19.502c5.687-3.836,13.161-6.916,14.635-13.615c0.567-2.576,0.09-5.334,0.924-7.837
								c0.5-1.5,1.44-2.806,2.19-4.2c3.678-6.837,5.766-20.036-1.6-24.893c-8.233-5.429-19.886,2.522-26.95-6.333
								c-1.066-1.336-1.86-2.892-3.073-4.096c-2.25-2.235-5.708-2.942-8.836-2.419
								C2470.386,2025.637,2480.643,2040.818,2486.833,2053.42z"/>
							<path style="fill:#7D97F4;" d="M2617.594,1954.031c6.576,4.206,17.926-5.021,22.1-15.807c0.522-1.35,1.007-2.76,1.963-3.846
								c1.948-2.212,5.298-2.495,8.217-2.087c2.919,0.408,5.829,1.344,8.753,0.97c4.195-0.538,7.66-3.758,9.619-7.506
								s2.664-8.005,3.342-12.18c3.103-0.765,6.458-0.47,9.38,0.824c2.256,1,4.484,3.203,3.854,5.59
								c-0.289,1.096-1.126,1.948-1.914,2.763c-2.461,2.546-4.754,5.254-6.859,8.101c-1.299,1.757-2.573,4.047-1.598,6.002
								c2.656,5.327,7.513,2.556,6.117,10.174c-1.757,9.544-14.721,13.445-7.315,24.846c2.71,4.172,7.64,6.668,12.61,6.893
								c3.566,0.162,7.957-1.685,8.003-5.255c0.014-1.058-0.377-2.147-0.045-3.152c0.432-1.307,1.913-1.948,3.274-2.154
								c4.454-0.677,8.758,1.558,12.868,3.403c1.24,0.557,2.722,1.075,3.901,0.399c3.843-2.203,2.05-4.02,7.274-4.507
								c4.455-0.415,9.668,3.02,12.192,6.416c0.607,0.817,1.155,1.869,0.771,2.81c-0.334,0.818-1.258,1.24-1.724,1.991
								c-0.768,1.238,0.006,2.948,1.217,3.756c1.211,0.809,2.719,0.986,4.145,1.28c6.694,1.378,6.85,7.759,11.58,10.943
								c3.84,2.585,13.622,3.095,12.759-4.341c-0.316-2.718-3.045-4.955-2.597-7.654c0.394-2.376,3.065-3.642,5.455-3.944
								c2.39-0.302,4.94-0.076,7.076-1.189c1.424-0.742,2.499-2.003,3.797-2.947c7.989-5.815,26.913-0.875,33.042,5.645
								c5.727,6.092,6.368,16.59,13.739,20.537c-0.861-8.095-4.946-15.802-11.162-21.059c-1.143-0.967-2.401-1.912-3-3.283
								c-0.504-1.152-0.475-2.457-0.411-3.713c0.327-6.412,1.585-12.382,3.335-18.367c-0.209,0.716,4.679-12.29,1.164-9.83
								c6.289-4.402,20.016-11.634,27.898-11.163c4.104,0.245,8.156,2.619,9.879,6.352c1.723,3.733,0.684,8.697-2.709,11.019
								c-3.248,2.224-7.756,1.797-11.055,3.944c-3.177,2.067-4.533,6.529-3.045,10.014c2.068-2.851,5.193-4.916,8.626-5.701
								c4.608-1.053,9.84,0.056,13.819-2.496c2.935-1.882,4.477-5.479,4.513-8.966c0.036-3.487-1.255-6.87-2.983-9.899
								c-1.25-2.191-2.753-4.29-3.422-6.722c-1.072-3.9,0.198-8.145,2.455-11.502c8.391-12.479,23.924-17.873,38.294-13.285
								c0.957,0.306,1.977,0.715,2.475,1.587c0.722,1.265,0.026,2.88,0.332,4.304c0.482,2.244,3.905,3.094,5.38,1.335
								c1.02-1.216,0.957-2.969,1.343-4.508c1.004-4.001,5.081-6.45,9.045-7.591c4.846-1.395,17.867-7.833,19.206,0.679
								c0.117,0.745,0.093,1.532,0.416,2.214c0.909,1.919,3.952,1.644,5.4,0.09c2.985-3.204,3.509-8.466,6.399-12.045
								c2.558-3.168,6.335-5.067,8.476-8.603c5.305-8.762,1.264-20.215-7.965-24.458c-8.843-4.066-19.134-2.263-28.714-0.541
								c-6.595,1.186-29.246,5.73-30.858-4.953c-0.132-0.876-0.104-1.809-0.527-2.586c-0.525-0.963-1.624-1.468-2.292-2.336
								c-0.854-1.109-0.889-2.623-1.349-3.945c-1.671-4.8-7.968-5.68-13.051-5.739c0.512-2.977,0.791-6.604-1.603-8.447
								c-1.353-1.042-3.179-1.156-4.885-1.229c-4.433-0.189-15.123,1.402-18.798-1.191c-4.868-3.435-1.515-9.287-3.636-14.024
								c-2.255-5.031-10.64-5.731-11.572-11.165c-0.202-1.175,0.019-2.386-0.122-3.57c-0.343-2.888-2.696-5.065-4.896-6.966
								c-3.989-3.447-8.508-7.093-13.778-6.958c-0.991,0.783-0.101,2.426,1.016,3.015c1.117,0.589,2.544,0.895,3.109,2.024
								c1.084,2.165-2.025,3.943-4.404,4.397c-0.116,3.165,3.066,5.261,5.524,7.258c4.152,3.372,7.102,8.195,8.214,13.427
								c-8.376,1.504-16.958,1.857-25.429,1.045c-10.207-0.978-16.764,15.223-28.862,10.732c-1.787-0.664-3.385-1.854-5.257-2.209
								c-4.71-0.892-8.503,3.57-12.736,5.82c-6.444,3.425-14.345,1.649-21.251-0.709c-8.252-2.818-18.287-6.865-26.605-2.003
								c-3.109,1.818-5.592,4.645-8.883,6.106c-6.908,3.066-14.746-0.698-22.269-1.42c-18.562-1.781-29.733,16.382-35.763,31.507
								c-0.915,2.296-1.736,4.707-1.616,7.176c0.12,2.468,1.373,5.024,3.626,6.04c3.338,1.506,7.217-0.886,9.395-3.829
								c2.179-2.943,3.503-6.54,6.169-9.05c2.666-2.51,7.565-3.318,9.67-0.322c1.036,1.474,1.078,3.404,1.082,5.205
								c0.007,3.422,0.014,6.844,0.022,10.266c0.004,1.882-0.005,3.829-0.769,5.548c-1.276,2.872-4.321,4.457-7.149,5.826
								c-6.143,2.973-12.287,5.947-18.43,8.92c-2.074,1.004-4.172,2.023-5.932,3.509c-8.025,6.773-2.633,16.147-8.823,22.669
								c-2.499,2.633-6.645,3.424-8.695,6.42c-1.515,2.214-1.507,5.095-1.444,7.776
								C2612.895,1948.09,2614.82,1952.257,2617.594,1954.031z"/>
							<path style="fill:#7D97F4;" d="M2831.772,2010.944c-2.488,4.497-2.144,10.376-7.765,12.859
								c-3.739,1.652-8.525,0.898-11.571,3.625c-3.474,3.111-2.567,8.628-1.896,13.243c0.12,0.828,0.217,1.706-0.121,2.471
								c-0.895,2.025-4.105,1.972-5.206,3.893c-0.945,1.649,0.226,3.727,1.635,5.002c4.293,3.884,11.271,4.393,16.083,1.173
								c1.281-0.857,2.667-2.002,4.164-1.635c1.745,0.428,2.331,2.548,2.805,4.281c1.009,3.69,3.002,7.238,6.151,9.415
								c9.906,6.847,23.842-1.485,34.843,8.177c1.351,1.187,2.637,2.598,3.031,4.353c0.426,1.896-0.211,4.074,0.855,5.699
								c1.335,2.035,4.62,1.759,6.416,0.117s2.518-4.115,3.268-6.43c0.75-2.315,1.734-4.762,3.798-6.057
								c3.474-2.178,7.434-1.345,9.357-5.776c2.399-5.653-4.758-10.334-2.487-15.485c1.014-2.3,2.636-4.809,1.618-7.108
								c-0.517-1.167-1.614-1.948-2.52-2.853c-4.24-4.238-4.961-8.226-10.61-10.811c-3.604-1.649-11.073,0.485-12.553-5.527
								c-0.386-1.567,0.167-3.533-1.041-4.603c-0.685-0.606-1.687-0.648-2.601-0.644c-6.321,0.022-13.839,0.117-17.441-5.077
								c-3.982-5.74-4.448-9.88-12.534-7.029C2834.51,2007.254,2832.867,2008.965,2831.772,2010.944z"/>
							<path style="fill:#7D97F4;" d="M2643.354,1979.359c-1.317,1.827-2.06,4.028-3.449,5.802
								c-3.909,4.989-5.606,0.579-10.024,2.258c-1.525,0.581-2.875,1.615-4.466,1.981c-3.216,0.74-6.411-1.406-9.711-1.42
								c-12.712-0.051-6.039,20.385,0.115,24.304c1.139,0.725,2.575,0.735,3.926,0.722c4.191-0.041,8.382-0.082,12.574-0.123
								c1.195-0.012,2.475,0.001,3.459,0.678c3.032,2.085,0.144,7.236,1.967,10.433c1.251,2.193,4.158,2.601,6.644,3.052
								c5.254,0.953,6.404,6.672,9.62,10.199c4.134,4.534,8.079,6.362,10.41,12.945c1.384,3.909,1.863,8.138,3.689,11.861
								c3.754,7.657,13.49,11.782,21.603,9.154c8.112-2.628,13.579-11.681,12.128-20.083c-0.847-4.909-3.674-9.209-5.636-13.787
								c-3.97-9.261-1.284-20.538,9.716-22.305c2.776-0.446,6.302-0.602,7.338-3.216c1.493-3.767-4.267-8.173-1.879-11.447
								c0.86-1.178,2.524-1.6,3.279-2.848c1.015-1.677-0.14-3.848-1.555-5.205c-1.415-1.357-3.198-2.533-3.783-4.406
								c-3.289-10.543-14.092-3.954-21.301-2.564c-6.43,1.239-10.097,0.434-15.446-2.659
								C2664.288,1977.896,2651.737,1967.73,2643.354,1979.359z"/>
							<path style="fill:#7D97F4;" d="M2670.746,1814.487c0.95-1.774,3.272-2.189,5.28-2.325c6.918-0.469,13.898-0.019,20.699,1.337
								c-5.63,4.427-11.914,9.08-19.071,8.839c-3.247-0.109-6.616-1.229-9.654-0.076c-0.71-2.14-0.319-4.615,1.019-6.431
								L2670.746,1814.487z"/>
							<path style="fill:#7D97F4;" d="M2590.756,1895.891c7.06,5.587,31.963-1.868,20.345-9.08
								c-1.877-1.165-4.129-1.524-6.313-1.858c-2.936-0.449-5.947-0.897-8.855-0.295s-5.74,2.485-6.612,5.324
								C2588.481,1892.714,2589.166,1894.633,2590.756,1895.891z"/>
							<path style="fill:#7D97F4;" d="M2898.338,1846.733c4.367,3.829,10.482,4.771,16.236,5.555
								c2.872,0.391,6.633,0.285,7.625-2.439c1.046-2.872-2.33-5.525-5.369-5.858c-3.039-0.333-6.267,0.47-9.082-0.722
								c-2.497-1.057-4.463-3.609-7.175-3.586c-3.156,0.027-5.067,4.633-2.856,6.886L2898.338,1846.733z"/>
						</g>
						<defs>
							
								<filter id="Adobe_OpacityMaskFilter" filterUnits="userSpaceOnUse" x="2314.02" y="1682.347" width="164.98" height="545.747">
								<feFlood  style="flood-color:white;flood-opacity:1" result="back"/>
								<feBlend  in="SourceGraphic" in2="back" mode="normal"/>
							</filter>
						</defs>
						
							<mask maskUnits="userSpaceOnUse" x="2314.02" y="1682.347" width="164.98" height="545.747" id="SVGID_00000064350401172000239720000014730354372175563656_">
							<g style="filter:url(#Adobe_OpacityMaskFilter);">
								<defs>
									
										<filter id="Adobe_OpacityMaskFilter_00000087381474850567745660000015190302542754518149_" filterUnits="userSpaceOnUse" x="2314.02" y="1682.347" width="164.98" height="545.747">
										<feFlood  style="flood-color:white;flood-opacity:1" result="back"/>
										<feBlend  in="SourceGraphic" in2="back" mode="normal"/>
									</filter>
								</defs>
								
									<mask maskUnits="userSpaceOnUse" x="2314.02" y="1682.347" width="164.98" height="545.747" id="SVGID_00000064350401172000239720000014730354372175563656_">
									<g style="filter:url(#Adobe_OpacityMaskFilter_00000087381474850567745660000015190302542754518149_);">
									</g>
								</mask>
								
									<linearGradient id="SVGID_00000148625017864927604200000004636558498925744549_" gradientUnits="userSpaceOnUse" x1="2350.9409" y1="1903.67" x2="2854.158" y2="2525.624">
									<stop  offset="0" style="stop-color:#999999"/>
									<stop  offset="0.9974" style="stop-color:#808080"/>
								</linearGradient>
								
									<polygon style="mask:url(#SVGID_00000064350401172000239720000014730354372175563656_);fill:url(#SVGID_00000148625017864927604200000004636558498925744549_);" points="
									2321.929,2228.094 2314.02,1772.228 2463.371,1682.347 2479,2158.542 								"/>
							</g>
						</mask>
						
							<linearGradient id="SVGID_00000030453638193384577250000001090547006416646846_" gradientUnits="userSpaceOnUse" x1="2350.9409" y1="1903.67" x2="2854.158" y2="2525.624">
							<stop  offset="0" style="stop-color:#FFFFFF"/>
							<stop  offset="0.9974" style="stop-color:#FFFFFF"/>
						</linearGradient>
						<polygon style="opacity:0.37;fill:url(#SVGID_00000030453638193384577250000001090547006416646846_);" points="
							2321.929,2228.094 2314.02,1772.228 2463.371,1682.347 2479,2158.542 						"/>
						<defs>
							
								<filter id="Adobe_OpacityMaskFilter_00000088822789194171802050000000414480692560635313_" filterUnits="userSpaceOnUse" x="2844.401" y="1658.297" width="175.027" height="576.182">
								<feFlood  style="flood-color:white;flood-opacity:1" result="back"/>
								<feBlend  in="SourceGraphic" in2="back" mode="normal"/>
							</filter>
						</defs>
						
							<mask maskUnits="userSpaceOnUse" x="2844.401" y="1658.297" width="175.027" height="576.182" id="SVGID_00000052794883220040932230000017743687250593826728_">
							<g style="filter:url(#Adobe_OpacityMaskFilter_00000088822789194171802050000000414480692560635313_);">
								<defs>
									
										<filter id="Adobe_OpacityMaskFilter_00000000941523039641019920000018117599266966957953_" filterUnits="userSpaceOnUse" x="2844.401" y="1658.297" width="175.027" height="576.182">
										<feFlood  style="flood-color:white;flood-opacity:1" result="back"/>
										<feBlend  in="SourceGraphic" in2="back" mode="normal"/>
									</filter>
								</defs>
								
									<mask maskUnits="userSpaceOnUse" x="2844.401" y="1658.297" width="175.027" height="576.182" id="SVGID_00000052794883220040932230000017743687250593826728_">
									<g style="filter:url(#Adobe_OpacityMaskFilter_00000000941523039641019920000018117599266966957953_);">
									</g>
								</mask>
								
									<linearGradient id="SVGID_00000070834194349326626420000013072432266185479592_" gradientUnits="userSpaceOnUse" x1="2775.957" y1="1843.2367" x2="3232.1978" y2="2176.4556">
									<stop  offset="0" style="stop-color:#666666"/>
									<stop  offset="0.0345" style="stop-color:#4D4D4D"/>
									<stop  offset="0.9974" style="stop-color:#333333"/>
								</linearGradient>
								
									<polygon style="mask:url(#SVGID_00000052794883220040932230000017743687250593826728_);fill:url(#SVGID_00000070834194349326626420000013072432266185479592_);" points="
									3002.049,2234.479 3019.428,1768.617 2844.401,1658.297 2846.845,2147.451 								"/>
							</g>
						</mask>
						
							<linearGradient id="SVGID_00000123409094422310835440000010444384344384266394_" gradientUnits="userSpaceOnUse" x1="2775.957" y1="1843.2367" x2="3232.1978" y2="2176.4556">
							<stop  offset="0" style="stop-color:#FFFFFF"/>
							<stop  offset="0.0345" style="stop-color:#FFFFFF"/>
							<stop  offset="0.9974" style="stop-color:#FFFFFF"/>
						</linearGradient>
						<polygon style="fill:url(#SVGID_00000123409094422310835440000010444384344384266394_);" points="3002.049,2234.479 
							3019.428,1768.617 2844.401,1658.297 2846.845,2147.451 						"/>
					</g>
				</g>
				<g>
					
						<rect x="2469.488" y="1682.219" transform="matrix(0.9995 -0.0328 0.0328 0.9995 -61.661 82.0883)" style="fill:#FFFFFF;" width="3.396" height="476.451"/>
					
						<rect x="2843.927" y="1658.295" transform="matrix(1 -0.005 0.005 1 -9.4672 14.2344)" style="fill:#FFFFFF;" width="3.394" height="489.16"/>
				</g>
			</g>
			
				<linearGradient id="SVGID_00000053543017316374043950000018317386104944481417_" gradientUnits="userSpaceOnUse" x1="2105.6282" y1="1585.0122" x2="2178.4336" y2="1585.0122" gradientTransform="matrix(-0.8593 -0.5115 -0.5115 0.8593 5663.0024 1532.2906)">
				<stop  offset="0" style="stop-color:#FEBBBA"/>
				<stop  offset="1" style="stop-color:#FF928E"/>
			</linearGradient>
			<path style="fill:url(#SVGID_00000053543017316374043950000018317386104944481417_);" d="M3031.527,1764.715
				c0,0,27.43,19.904,10.096,53.996c-17.335,34.091-30.288,33.308-30.339,18.473c-0.052-14.834,0.033-15.083-7.878-31.636
				c-7.911-16.552-11.917-44.255-11.917-44.255S3002.574,1750.098,3031.527,1764.715z"/>
			
				<linearGradient id="SVGID_00000154385739502764509020000004724507152416138138_" gradientUnits="userSpaceOnUse" x1="2504.4475" y1="-53.0499" x2="2610.5234" y2="-53.0499" gradientTransform="matrix(0.7635 -0.6458 0.6458 0.7635 390.1097 3616.9641)">
				<stop  offset="0" style="stop-color:#FEBBBA"/>
				<stop  offset="1" style="stop-color:#FF928E"/>
			</linearGradient>
			<path style="fill:url(#SVGID_00000154385739502764509020000004724507152416138138_);" d="M2289.259,1882.716
				c0,0-50.11,36.265-18.103,79.661c32.007,43.396,49.024,15.801,45.658-4.842c-3.365-20.643-3.159-24.367,4.007-49.219
				c7.167-24.853,9.692-38.718,9.692-38.718S2332.013,1858.448,2289.259,1882.716z"/>
		</g>
		<g>
			
				<linearGradient id="SVGID_00000086690834068637716860000015188381059016605587_" gradientUnits="userSpaceOnUse" x1="2760.353" y1="484.5973" x2="2607.6318" y2="550.7766">
				<stop  offset="0" style="stop-color:#FEBBBA"/>
				<stop  offset="1" style="stop-color:#FF928E"/>
			</linearGradient>
			
				<circle style="fill:url(#SVGID_00000086690834068637716860000015188381059016605587_);" cx="1802.986" cy="899.457" r="155.624"/>
			<path style="opacity:0.53;fill:#FFFFFF;" d="M2416.719,1003.843c0.355-1.124,0.618-2.298,0.769-3.54
				c-9.686-17.612-31.883-19.328-48.739-13.022c4.01-32.706-2.224-69.271-30.957-90c-28.276-20.399-70.47-18.613-96.921,4.103
				c-23.271-65.077-82.036-96.264-146.249-79.184c-32.163,8.555-60.021,20.536-82.474,46.351
				c-4.205,4.834-41.937,67.894-31.706,70.305c-22.85-5.385-40.889-24.549-64.032-28.483
				c-29.933-5.088-112.352,55.862-100.463,90.67c13.978,40.923,167.807,4.456,201.86,8.581
				c24.572,2.976,48.107,11.353,71.936,18.047c96.151,27.008,199.873,26.477,295.742-1.514
				C2398.27,1022.424,2412.886,1015.971,2416.719,1003.843z"/>
		</g>
		<g>
			<path style="fill:#7D97F4;" d="M2542.463,900.863c13.873-13.418,85.514,7.269,93.21,26.637
				c16.675-40.747,46.313-33.859,87.224-52.291c-50.026,36.771-70.782,63.745-82.094,101.725
				C2615.87,929.641,2593.771,914.973,2542.463,900.863z"/>
			<path style="fill:#7D97F4;" d="M2687.475,1083.534c13.874-13.418,85.514,7.269,93.21,26.637
				c16.675-40.747,46.313-33.859,87.224-52.291c-50.026,36.771-70.782,63.745-82.093,101.725
				C2760.882,1112.312,2738.783,1097.644,2687.475,1083.534z"/>
		</g>
	</g>
</g>
</svg>
